%TF.GenerationSoftware,KiCad,Pcbnew,10.0.1*%
%TF.CreationDate,2026-06-11T21:31:32+08:00*%
%TF.ProjectId,hackpad,6861636b-7061-4642-9e6b-696361645f70,rev?*%
%TF.SameCoordinates,Original*%
%TF.FileFunction,Copper,L1,Top*%
%TF.FilePolarity,Positive*%
%FSLAX46Y46*%
G04 Gerber Fmt 4.6, Leading zero omitted, Abs format (unit mm)*
G04 Created by KiCad (PCBNEW 10.0.1) date 2026-06-11 21:31:32*
%MOMM*%
%LPD*%
G01*
G04 APERTURE LIST*
%TA.AperFunction,ComponentPad*%
%ADD10C,2.200000*%
%TD*%
%TA.AperFunction,ComponentPad*%
%ADD11R,2.000000X2.000000*%
%TD*%
%TA.AperFunction,ComponentPad*%
%ADD12C,2.000000*%
%TD*%
%TA.AperFunction,ComponentPad*%
%ADD13R,3.000000X2.500000*%
%TD*%
%TA.AperFunction,ComponentPad*%
%ADD14C,1.600000*%
%TD*%
%TA.AperFunction,SMDPad,CuDef*%
%ADD15R,3.000000X1.600000*%
%TD*%
%TA.AperFunction,SMDPad,CuDef*%
%ADD16R,1.200000X2.400000*%
%TD*%
%TA.AperFunction,SMDPad,CuDef*%
%ADD17C,1.200000*%
%TD*%
%TA.AperFunction,Conductor*%
%ADD18C,0.200000*%
%TD*%
G04 APERTURE END LIST*
D10*
%TO.P,SW1,1,1_1*%
%TO.N,/SW1*%
X123000000Y-110000000D03*
%TO.P,SW1,2,2_2*%
%TO.N,GND*%
X116650000Y-112540000D03*
%TD*%
D11*
%TO.P,SW4,A,A_A*%
%TO.N,/A4*%
X113400000Y-95100000D03*
D12*
%TO.P,SW4,B,B_B*%
%TO.N,/B4*%
X113400000Y-100100000D03*
%TO.P,SW4,C,C_C*%
%TO.N,GND*%
X113400000Y-97600000D03*
D13*
%TO.P,SW4,MP*%
%TO.N,N/C*%
X120900000Y-92000000D03*
X120900000Y-103200000D03*
D12*
%TO.P,SW4,S1,S1_S1*%
%TO.N,/SW4*%
X127900000Y-95100000D03*
%TO.P,SW4,S2,S2_S2*%
%TO.N,GND*%
X127900000Y-100100000D03*
%TD*%
D14*
%TO.P,M1,1,D0_1*%
%TO.N,/SW1*%
X92965000Y-93300000D03*
D15*
X91965000Y-93300000D03*
D14*
%TO.P,M1,2,D1_2*%
%TO.N,/SW2*%
X92965000Y-95840000D03*
D15*
X91965000Y-95840000D03*
D14*
%TO.P,M1,3,D2_3*%
%TO.N,/SW3*%
X92965000Y-98380000D03*
D15*
X91965000Y-98380000D03*
D14*
%TO.P,M1,4,D3_4*%
%TO.N,/SW4*%
X92965000Y-100920000D03*
D15*
X91965000Y-100920000D03*
D14*
%TO.P,M1,5,D4_5*%
%TO.N,/SW5*%
X92965000Y-103460000D03*
D15*
X91965000Y-103460000D03*
D14*
%TO.P,M1,6,D5_6*%
%TO.N,/SW6*%
X92965000Y-106000000D03*
D15*
X91965000Y-106000000D03*
D14*
%TO.P,M1,7,D6_7*%
%TO.N,/SW7*%
X92965000Y-108540000D03*
D15*
X91965000Y-108540000D03*
D14*
%TO.P,M1,8,D7_8*%
%TO.N,/A4*%
X108200000Y-108540000D03*
D15*
X109200000Y-108540000D03*
D14*
%TO.P,M1,9,D8_9*%
%TO.N,/B4*%
X108200000Y-106000000D03*
D15*
X109200000Y-106000000D03*
D14*
%TO.P,M1,10,D9_10*%
%TO.N,/A5*%
X108200000Y-103460000D03*
D15*
X109200000Y-103460000D03*
D14*
%TO.P,M1,11,D10_11*%
%TO.N,/B5*%
X108200000Y-100920000D03*
D15*
X109200000Y-100920000D03*
D14*
%TO.P,M1,12,3V3_12*%
%TO.N,unconnected-(M1-3V3-Pad12)*%
X108200000Y-98380000D03*
D15*
%TO.N,unconnected-(M1-3V3-Pad12)_1*%
X109200000Y-98380000D03*
D14*
%TO.P,M1,13,GND_13*%
%TO.N,GND*%
X108200000Y-95840000D03*
D15*
X109200000Y-95840000D03*
D14*
%TO.P,M1,14,5V_14*%
%TO.N,unconnected-(M1-5V-Pad14)_1*%
X108200000Y-93300000D03*
D15*
%TO.N,unconnected-(M1-5V-Pad14)*%
X109200000Y-93300000D03*
D16*
%TO.P,M1,15,GND_15*%
%TO.N,GND*%
X101855000Y-109810000D03*
%TO.P,M1,16,VIN_16*%
%TO.N,unconnected-(M1-VIN-Pad16)*%
X99315000Y-109810000D03*
D17*
%TO.P,M1,17,SWDIO_17*%
%TO.N,unconnected-(M1-SWDIO-Pad17)*%
X99310000Y-92420000D03*
%TO.P,M1,18,RESET_18*%
%TO.N,unconnected-(M1-RESET-Pad18)*%
X99310000Y-94960000D03*
%TO.P,M1,19,GND_19*%
%TO.N,GND*%
X101850000Y-94960000D03*
%TO.P,M1,20,SWCLK_20*%
%TO.N,unconnected-(M1-SWCLK-Pad20)*%
X101850000Y-92420000D03*
%TD*%
D11*
%TO.P,SW5,A,A_A*%
%TO.N,/A5*%
X132500000Y-95100000D03*
D12*
%TO.P,SW5,B,B_B*%
%TO.N,/B5*%
X132500000Y-100100000D03*
%TO.P,SW5,C,C_C*%
%TO.N,GND*%
X132500000Y-97600000D03*
D13*
%TO.P,SW5,MP*%
%TO.N,N/C*%
X140000000Y-92000000D03*
X140000000Y-103200000D03*
D12*
%TO.P,SW5,S1,S1_S1*%
%TO.N,/SW5*%
X147000000Y-95100000D03*
%TO.P,SW5,S2,S2_S2*%
%TO.N,GND*%
X147000000Y-100100000D03*
%TD*%
D10*
%TO.P,SW2,1,1_1*%
%TO.N,/SW2*%
X142050000Y-110000000D03*
%TO.P,SW2,2,2_2*%
%TO.N,GND*%
X135700000Y-112540000D03*
%TD*%
%TO.P,SW3,1,1_1*%
%TO.N,/SW3*%
X103950000Y-129050000D03*
%TO.P,SW3,2,2_2*%
%TO.N,GND*%
X97600000Y-131590000D03*
%TD*%
%TO.P,SW6,1,1_1*%
%TO.N,/SW6*%
X123000000Y-129050000D03*
%TO.P,SW6,2,2_2*%
%TO.N,GND*%
X116650000Y-131590000D03*
%TD*%
%TO.P,SW7,1,1_1*%
%TO.N,/SW7*%
X142050000Y-129050000D03*
%TO.P,SW7,2,2_2*%
%TO.N,GND*%
X135700000Y-131590000D03*
%TD*%
%TO.N,/SW3*%
D18*
X103950000Y-122150000D02*
X95900000Y-114100000D01*
X95185000Y-100600000D02*
X92965000Y-98380000D01*
%TO.N,/A4*%
X100950000Y-101290000D02*
X108200000Y-108540000D01*
%TO.N,/B4*%
X113400000Y-103600000D02*
X111000000Y-106000000D01*
%TO.N,/A4*%
X107665686Y-94740000D02*
X106845686Y-93920000D01*
X100950000Y-94587207D02*
X100950000Y-101290000D01*
%TO.N,/SW3*%
X103950000Y-129050000D02*
X103950000Y-122150000D01*
X95900000Y-114100000D02*
X95900000Y-100600000D01*
%TO.N,/A4*%
X113040000Y-94740000D02*
X107665686Y-94740000D01*
%TO.N,/B4*%
X113400000Y-100100000D02*
X113400000Y-103600000D01*
%TO.N,/SW3*%
X95900000Y-100600000D02*
X95185000Y-100600000D01*
%TO.N,/A4*%
X113400000Y-95100000D02*
X113040000Y-94740000D01*
X106845686Y-93920000D02*
X101617207Y-93920000D01*
X101617207Y-93920000D02*
X100950000Y-94587207D01*
%TO.N,/B4*%
X111000000Y-106000000D02*
X108200000Y-106000000D01*
%TO.N,GND*%
X108200000Y-95840000D02*
X111640000Y-95840000D01*
X135700000Y-112540000D02*
X116650000Y-112540000D01*
X116650000Y-112540000D02*
X116650000Y-131590000D01*
X127900000Y-101290000D02*
X127900000Y-100100000D01*
X116650000Y-131590000D02*
X97600000Y-131590000D01*
X127900000Y-100100000D02*
X130400000Y-97600000D01*
X102490000Y-94320000D02*
X106680000Y-94320000D01*
%TO.N,/SW7*%
X142900000Y-138300000D02*
X95200000Y-138300000D01*
%TO.N,GND*%
X111640000Y-95840000D02*
X113400000Y-97600000D01*
%TO.N,/SW6*%
X94065000Y-107100000D02*
X92965000Y-106000000D01*
%TO.N,GND*%
X115900000Y-100100000D02*
X127900000Y-100100000D01*
%TO.N,/SW7*%
X142050000Y-129050000D02*
X142900000Y-129900000D01*
%TO.N,GND*%
X116650000Y-112540000D02*
X127900000Y-101290000D01*
X106680000Y-94320000D02*
X108200000Y-95840000D01*
%TO.N,/SW6*%
X94065000Y-130108402D02*
X94065000Y-107100000D01*
X135420000Y-136480000D02*
X100436598Y-136480000D01*
X137100000Y-131010101D02*
X137100000Y-134800000D01*
%TO.N,GND*%
X101850000Y-94960000D02*
X102490000Y-94320000D01*
%TO.N,/SW7*%
X142900000Y-129900000D02*
X142900000Y-138300000D01*
%TO.N,GND*%
X130400000Y-97600000D02*
X132500000Y-97600000D01*
X135000000Y-100100000D02*
X147000000Y-100100000D01*
%TO.N,/SW7*%
X92965000Y-136065000D02*
X92965000Y-108540000D01*
%TO.N,/SW6*%
X123000000Y-129050000D02*
X135139899Y-129050000D01*
%TO.N,GND*%
X116650000Y-131590000D02*
X135700000Y-131590000D01*
%TO.N,/SW6*%
X137100000Y-134800000D02*
X135420000Y-136480000D01*
X135139899Y-129050000D02*
X137100000Y-131010101D01*
%TO.N,/SW7*%
X95200000Y-138300000D02*
X92965000Y-136065000D01*
%TO.N,GND*%
X116650000Y-112540000D02*
X104585000Y-112540000D01*
X132500000Y-97600000D02*
X135000000Y-100100000D01*
X113400000Y-97600000D02*
X115900000Y-100100000D01*
X104585000Y-112540000D02*
X101855000Y-109810000D01*
%TO.N,/SW6*%
X100436598Y-136480000D02*
X94065000Y-130108402D01*
%TD*%
M02*
