%TF.GenerationSoftware,KiCad,Pcbnew,10.0.1*%
%TF.CreationDate,2026-06-12T02:12:07+08:00*%
%TF.ProjectId,hackpad,6861636b-7061-4642-9e6b-696361645f70,rev?*%
%TF.SameCoordinates,Original*%
%TF.FileFunction,Copper,L1,Top*%
%TF.FilePolarity,Positive*%
%FSLAX46Y46*%
G04 Gerber Fmt 4.6, Leading zero omitted, Abs format (unit mm)*
G04 Created by KiCad (PCBNEW 10.0.1) date 2026-06-12 02:12:07*
%MOMM*%
%LPD*%
G01*
G04 APERTURE LIST*
%TA.AperFunction,ComponentPad*%
%ADD10C,2.200000*%
%TD*%
%TA.AperFunction,ComponentPad*%
%ADD11R,2.000000X2.000000*%
%TD*%
%TA.AperFunction,ComponentPad*%
%ADD12C,2.000000*%
%TD*%
%TA.AperFunction,ComponentPad*%
%ADD13R,3.000000X2.500000*%
%TD*%
%TA.AperFunction,ComponentPad*%
%ADD14C,1.600000*%
%TD*%
%TA.AperFunction,SMDPad,CuDef*%
%ADD15R,3.000000X1.600000*%
%TD*%
%TA.AperFunction,SMDPad,CuDef*%
%ADD16R,1.200000X2.400000*%
%TD*%
%TA.AperFunction,SMDPad,CuDef*%
%ADD17C,1.200000*%
%TD*%
%TA.AperFunction,Conductor*%
%ADD18C,1.000000*%
%TD*%
%TA.AperFunction,Conductor*%
%ADD19C,0.200000*%
%TD*%
G04 APERTURE END LIST*
D10*
%TO.P,SW1,2,2_2*%
%TO.N,GND*%
X116650000Y-112540000D03*
%TO.P,SW1,1,1_1*%
%TO.N,/SW1*%
X123000000Y-110000000D03*
%TD*%
%TO.P,SW7,1,1_1*%
%TO.N,/SW7*%
X142050000Y-129050000D03*
%TO.P,SW7,2,2_2*%
%TO.N,GND*%
X135700000Y-131590000D03*
%TD*%
D11*
%TO.P,SW5,A,A_A*%
%TO.N,/A5*%
X132500000Y-95100000D03*
D12*
%TO.P,SW5,B,B_B*%
%TO.N,/B5*%
X132500000Y-100100000D03*
%TO.P,SW5,C,C_C*%
%TO.N,GND*%
X132500000Y-97600000D03*
D13*
%TO.P,SW5,MP*%
%TO.N,N/C*%
X140000000Y-92000000D03*
X140000000Y-103200000D03*
D12*
%TO.P,SW5,S1,S1_S1*%
%TO.N,/SW5*%
X147000000Y-95100000D03*
%TO.P,SW5,S2,S2_S2*%
%TO.N,GND*%
X147000000Y-100100000D03*
%TD*%
D10*
%TO.P,SW6,1,1_1*%
%TO.N,/SW6*%
X123000000Y-129050000D03*
%TO.P,SW6,2,2_2*%
%TO.N,GND*%
X116650000Y-131590000D03*
%TD*%
D14*
%TO.P,M1,1,D0_1*%
%TO.N,/SW1*%
X92965000Y-93300000D03*
D15*
X91965000Y-93300000D03*
D14*
%TO.P,M1,2,D1_2*%
%TO.N,/SW2*%
X92965000Y-95840000D03*
D15*
X91965000Y-95840000D03*
D14*
%TO.P,M1,3,D2_3*%
%TO.N,/SW3*%
X92965000Y-98380000D03*
D15*
X91965000Y-98380000D03*
D14*
%TO.P,M1,4,D3_4*%
%TO.N,/SW4*%
X92965000Y-100920000D03*
D15*
X91965000Y-100920000D03*
D14*
%TO.P,M1,5,D4_5*%
%TO.N,/SW5*%
X92965000Y-103460000D03*
D15*
X91965000Y-103460000D03*
D14*
%TO.P,M1,6,D5_6*%
%TO.N,/SW6*%
X92965000Y-106000000D03*
D15*
X91965000Y-106000000D03*
D14*
%TO.P,M1,7,D6_7*%
%TO.N,/SW7*%
X92965000Y-108540000D03*
D15*
X91965000Y-108540000D03*
D14*
%TO.P,M1,8,D7_8*%
%TO.N,/A4*%
X108200000Y-108540000D03*
D15*
X109200000Y-108540000D03*
D14*
%TO.P,M1,9,D8_9*%
%TO.N,/B4*%
X108200000Y-106000000D03*
D15*
X109200000Y-106000000D03*
D14*
%TO.P,M1,10,D9_10*%
%TO.N,/A5*%
X108200000Y-103460000D03*
D15*
X109200000Y-103460000D03*
D14*
%TO.P,M1,11,D10_11*%
%TO.N,/B5*%
X108200000Y-100920000D03*
D15*
X109200000Y-100920000D03*
D14*
%TO.P,M1,12,3V3_12*%
%TO.N,unconnected-(M1-3V3-Pad12)*%
X108200000Y-98380000D03*
D15*
%TO.N,unconnected-(M1-3V3-Pad12)_1*%
X109200000Y-98380000D03*
D14*
%TO.P,M1,13,GND_13*%
%TO.N,GND*%
X108200000Y-95840000D03*
D15*
X109200000Y-95840000D03*
D14*
%TO.P,M1,14,5V_14*%
%TO.N,unconnected-(M1-5V-Pad14)_1*%
X108200000Y-93300000D03*
D15*
%TO.N,unconnected-(M1-5V-Pad14)*%
X109200000Y-93300000D03*
D16*
%TO.P,M1,15,GND_15*%
%TO.N,GND*%
X101855000Y-109810000D03*
%TO.P,M1,16,VIN_16*%
%TO.N,unconnected-(M1-VIN-Pad16)*%
X99315000Y-109810000D03*
D17*
%TO.P,M1,17,SWDIO_17*%
%TO.N,unconnected-(M1-SWDIO-Pad17)*%
X99310000Y-92420000D03*
%TO.P,M1,18,RESET_18*%
%TO.N,unconnected-(M1-RESET-Pad18)*%
X99310000Y-94960000D03*
%TO.P,M1,19,GND_19*%
%TO.N,GND*%
X101850000Y-94960000D03*
%TO.P,M1,20,SWCLK_20*%
%TO.N,unconnected-(M1-SWCLK-Pad20)*%
X101850000Y-92420000D03*
%TD*%
D10*
%TO.P,SW2,1,1_1*%
%TO.N,/SW2*%
X142050000Y-110000000D03*
%TO.P,SW2,2,2_2*%
%TO.N,GND*%
X135700000Y-112540000D03*
%TD*%
%TO.P,SW3,1,1_1*%
%TO.N,/SW3*%
X103950000Y-129050000D03*
%TO.P,SW3,2,2_2*%
%TO.N,GND*%
X97600000Y-131590000D03*
%TD*%
D11*
%TO.P,SW4,A,A_A*%
%TO.N,/A4*%
X113400000Y-95100000D03*
D12*
%TO.P,SW4,B,B_B*%
%TO.N,/B4*%
X113400000Y-100100000D03*
%TO.P,SW4,C,C_C*%
%TO.N,GND*%
X113400000Y-97600000D03*
D13*
%TO.P,SW4,MP*%
%TO.N,N/C*%
X120900000Y-92000000D03*
X120900000Y-103200000D03*
D12*
%TO.P,SW4,S1,S1_S1*%
%TO.N,/SW4*%
X127900000Y-95100000D03*
%TO.P,SW4,S2,S2_S2*%
%TO.N,GND*%
X127900000Y-100100000D03*
%TD*%
%TO.N,GND*%
D18*
X135000000Y-100100000D02*
X147000000Y-100100000D01*
%TO.N,/SW7*%
D19*
X95200000Y-138300000D02*
X92965000Y-136065000D01*
X92965000Y-136065000D02*
X92965000Y-108540000D01*
X142050000Y-129050000D02*
X142900000Y-129900000D01*
X142900000Y-138300000D02*
X95200000Y-138300000D01*
X142900000Y-129900000D02*
X142900000Y-138300000D01*
%TO.N,GND*%
X111640000Y-95840000D02*
X113400000Y-97600000D01*
X116650000Y-131590000D02*
X135700000Y-131590000D01*
X127900000Y-101290000D02*
X127900000Y-100100000D01*
X106680000Y-94320000D02*
X108200000Y-95840000D01*
X108200000Y-95840000D02*
X111640000Y-95840000D01*
X116650000Y-112540000D02*
X104585000Y-112540000D01*
X127900000Y-100100000D02*
X130400000Y-97600000D01*
X102490000Y-94320000D02*
X106680000Y-94320000D01*
X101850000Y-94960000D02*
X102490000Y-94320000D01*
X132500000Y-97600000D02*
X135000000Y-100100000D01*
X104585000Y-112540000D02*
X101855000Y-109810000D01*
X116650000Y-131590000D02*
X97600000Y-131590000D01*
X130400000Y-97600000D02*
X132500000Y-97600000D01*
X113400000Y-97600000D02*
X115900000Y-100100000D01*
X135700000Y-112540000D02*
X116650000Y-112540000D01*
X116650000Y-112540000D02*
X127900000Y-101290000D01*
X115900000Y-100100000D02*
X127900000Y-100100000D01*
X116650000Y-112540000D02*
X116650000Y-131590000D01*
%TO.N,/SW6*%
X137100000Y-131010101D02*
X137100000Y-134800000D01*
X100436598Y-136480000D02*
X94065000Y-130108402D01*
X135420000Y-136480000D02*
X100436598Y-136480000D01*
X135139899Y-129050000D02*
X137100000Y-131010101D01*
X94065000Y-130108402D02*
X94065000Y-107100000D01*
X137100000Y-134800000D02*
X135420000Y-136480000D01*
X123000000Y-129050000D02*
X135139899Y-129050000D01*
X94065000Y-107100000D02*
X92965000Y-106000000D01*
%TO.N,/SW3*%
X95185000Y-100600000D02*
X92965000Y-98380000D01*
X95900000Y-100600000D02*
X95185000Y-100600000D01*
X103950000Y-122150000D02*
X95900000Y-114100000D01*
X95900000Y-114100000D02*
X95900000Y-100600000D01*
X103950000Y-129050000D02*
X103950000Y-122150000D01*
%TO.N,/A4*%
X100950000Y-94587207D02*
X100950000Y-101290000D01*
X107665686Y-94740000D02*
X106845686Y-93920000D01*
X100950000Y-101290000D02*
X108200000Y-108540000D01*
X113400000Y-95100000D02*
X113040000Y-94740000D01*
X101617207Y-93920000D02*
X100950000Y-94587207D01*
X106845686Y-93920000D02*
X101617207Y-93920000D01*
X113040000Y-94740000D02*
X107665686Y-94740000D01*
%TO.N,/B4*%
X111000000Y-106000000D02*
X108200000Y-106000000D01*
X113400000Y-103600000D02*
X111000000Y-106000000D01*
X113400000Y-100100000D02*
X113400000Y-103600000D01*
%TD*%
%TA.AperFunction,Conductor*%
%TO.N,GND*%
G36*
X98198606Y-92789007D02*
G01*
X98263427Y-92815081D01*
X98297101Y-92856132D01*
X98368766Y-92996786D01*
X98373778Y-93003684D01*
X98470586Y-93136928D01*
X98593072Y-93259414D01*
X98733212Y-93361232D01*
X98887555Y-93439873D01*
X99052299Y-93493402D01*
X99223389Y-93520500D01*
X99223390Y-93520500D01*
X99396610Y-93520500D01*
X99396611Y-93520500D01*
X99567701Y-93493402D01*
X99732445Y-93439873D01*
X99886788Y-93361232D01*
X100026928Y-93259414D01*
X100149414Y-93136928D01*
X100215225Y-93046346D01*
X100270551Y-93003684D01*
X100327524Y-92995816D01*
X100896614Y-93051099D01*
X100961435Y-93077173D01*
X100984941Y-93101632D01*
X101008283Y-93133758D01*
X101010586Y-93136928D01*
X101133072Y-93259414D01*
X101186757Y-93298419D01*
X101198172Y-93313221D01*
X101213139Y-93324425D01*
X101219066Y-93340316D01*
X101229423Y-93353747D01*
X101231022Y-93372372D01*
X101237556Y-93389889D01*
X101233950Y-93406463D01*
X101235402Y-93423361D01*
X101226678Y-93439893D01*
X101222705Y-93458162D01*
X101203511Y-93483802D01*
X101202797Y-93485156D01*
X101201554Y-93486417D01*
X101136687Y-93551284D01*
X101136686Y-93551284D01*
X101136685Y-93551285D01*
X100469481Y-94218489D01*
X100469477Y-94218494D01*
X100445816Y-94259478D01*
X100445815Y-94259481D01*
X100431701Y-94283925D01*
X100415320Y-94312298D01*
X100364751Y-94360512D01*
X100296144Y-94373733D01*
X100231280Y-94347764D01*
X100207616Y-94323180D01*
X100149416Y-94243075D01*
X100149411Y-94243069D01*
X100026930Y-94120588D01*
X100026928Y-94120586D01*
X99886788Y-94018768D01*
X99732445Y-93940127D01*
X99567701Y-93886598D01*
X99567699Y-93886597D01*
X99567698Y-93886597D01*
X99436271Y-93865781D01*
X99396611Y-93859500D01*
X99223389Y-93859500D01*
X99183728Y-93865781D01*
X99052302Y-93886597D01*
X98887552Y-93940128D01*
X98733211Y-94018768D01*
X98687297Y-94052127D01*
X98593072Y-94120586D01*
X98593070Y-94120588D01*
X98593069Y-94120588D01*
X98470588Y-94243069D01*
X98470588Y-94243070D01*
X98470586Y-94243072D01*
X98458662Y-94259484D01*
X98368768Y-94383211D01*
X98290128Y-94537552D01*
X98236597Y-94702302D01*
X98221493Y-94797669D01*
X98209500Y-94873389D01*
X98209500Y-95046611D01*
X98236598Y-95217701D01*
X98290127Y-95382445D01*
X98368768Y-95536788D01*
X98470586Y-95676928D01*
X98593072Y-95799414D01*
X98733212Y-95901232D01*
X98887555Y-95979873D01*
X99052299Y-96033402D01*
X99223389Y-96060500D01*
X99223390Y-96060500D01*
X99396610Y-96060500D01*
X99396611Y-96060500D01*
X99567701Y-96033402D01*
X99732445Y-95979873D01*
X99886788Y-95901232D01*
X100026928Y-95799414D01*
X100137819Y-95688523D01*
X100199142Y-95655038D01*
X100268834Y-95660022D01*
X100324767Y-95701894D01*
X100349184Y-95767358D01*
X100349500Y-95776204D01*
X100349500Y-101203330D01*
X100349499Y-101203348D01*
X100349499Y-101369054D01*
X100349498Y-101369054D01*
X100390424Y-101521789D01*
X100390425Y-101521790D01*
X100409061Y-101554067D01*
X100414538Y-101563553D01*
X100436509Y-101601608D01*
X100469479Y-101658714D01*
X100469481Y-101658717D01*
X100588349Y-101777585D01*
X100588355Y-101777590D01*
X106905922Y-108095157D01*
X106939407Y-108156480D01*
X106936173Y-108221155D01*
X106931522Y-108235468D01*
X106899500Y-108437648D01*
X106899500Y-108642351D01*
X106931522Y-108844534D01*
X106994781Y-109039223D01*
X107087712Y-109221608D01*
X107087713Y-109221610D01*
X107178500Y-109346571D01*
X107201471Y-109406201D01*
X107205909Y-109447483D01*
X107256202Y-109582328D01*
X107256206Y-109582335D01*
X107342452Y-109697544D01*
X107342455Y-109697547D01*
X107457664Y-109783793D01*
X107457671Y-109783797D01*
X107502618Y-109800561D01*
X107592517Y-109834091D01*
X107652127Y-109840500D01*
X108072980Y-109840499D01*
X108072986Y-109840500D01*
X108097648Y-109840500D01*
X108327015Y-109840500D01*
X108327019Y-109840499D01*
X110747871Y-109840499D01*
X110747872Y-109840499D01*
X110807483Y-109834091D01*
X110942331Y-109783796D01*
X110960895Y-109769899D01*
X110960897Y-109769898D01*
X111010108Y-109733057D01*
X111057546Y-109697546D01*
X111143796Y-109582331D01*
X111194091Y-109447483D01*
X111200500Y-109387873D01*
X111200499Y-107692128D01*
X111194091Y-107632517D01*
X111143796Y-107497669D01*
X111143795Y-107497668D01*
X111143793Y-107497664D01*
X111057547Y-107382455D01*
X111057546Y-107382454D01*
X111039930Y-107369267D01*
X110998058Y-107313334D01*
X110993074Y-107243642D01*
X111026558Y-107182319D01*
X111039930Y-107170733D01*
X111057546Y-107157546D01*
X111143796Y-107042331D01*
X111194091Y-106907483D01*
X111200500Y-106847873D01*
X111200499Y-106649229D01*
X111203881Y-106637711D01*
X111202740Y-106625760D01*
X111213542Y-106604807D01*
X111220183Y-106582190D01*
X111230056Y-106572775D01*
X111234757Y-106563658D01*
X111262492Y-106541846D01*
X111281904Y-106530639D01*
X111368716Y-106480520D01*
X111480520Y-106368716D01*
X111480520Y-106368714D01*
X111490728Y-106358507D01*
X111490729Y-106358504D01*
X113880520Y-103968716D01*
X113959577Y-103831784D01*
X114000501Y-103679057D01*
X114000501Y-103520942D01*
X114000501Y-103513347D01*
X114000500Y-103513329D01*
X114000500Y-101902135D01*
X118899500Y-101902135D01*
X118899500Y-104497870D01*
X118899501Y-104497876D01*
X118905908Y-104557483D01*
X118956202Y-104692328D01*
X118956206Y-104692335D01*
X119042452Y-104807544D01*
X119042455Y-104807547D01*
X119157664Y-104893793D01*
X119157671Y-104893797D01*
X119292517Y-104944091D01*
X119292516Y-104944091D01*
X119299444Y-104944835D01*
X119352127Y-104950500D01*
X122447872Y-104950499D01*
X122507483Y-104944091D01*
X122642331Y-104893796D01*
X122757546Y-104807546D01*
X122843796Y-104692331D01*
X122894091Y-104557483D01*
X122900500Y-104497873D01*
X122900499Y-101902128D01*
X122894091Y-101842517D01*
X122888483Y-101827482D01*
X122843797Y-101707671D01*
X122843793Y-101707664D01*
X122757547Y-101592455D01*
X122757544Y-101592452D01*
X122642335Y-101506206D01*
X122642328Y-101506202D01*
X122507482Y-101455908D01*
X122507483Y-101455908D01*
X122447883Y-101449501D01*
X122447881Y-101449500D01*
X122447873Y-101449500D01*
X122447864Y-101449500D01*
X119352129Y-101449500D01*
X119352123Y-101449501D01*
X119292516Y-101455908D01*
X119157671Y-101506202D01*
X119157664Y-101506206D01*
X119042455Y-101592452D01*
X119042452Y-101592455D01*
X118956206Y-101707664D01*
X118956202Y-101707671D01*
X118905908Y-101842517D01*
X118899501Y-101902116D01*
X118899501Y-101902123D01*
X118899500Y-101902135D01*
X114000500Y-101902135D01*
X114000500Y-101554067D01*
X114020185Y-101487028D01*
X114068205Y-101443582D01*
X114186433Y-101383343D01*
X114377510Y-101244517D01*
X114544517Y-101077510D01*
X114683343Y-100886433D01*
X114790568Y-100675992D01*
X114863553Y-100451368D01*
X114865189Y-100441036D01*
X114900500Y-100218097D01*
X114900500Y-99981947D01*
X126400000Y-99981947D01*
X126400000Y-100218052D01*
X126436934Y-100451247D01*
X126509897Y-100675802D01*
X126617087Y-100886174D01*
X126677338Y-100969104D01*
X126677340Y-100969105D01*
X127417037Y-100229408D01*
X127434075Y-100292993D01*
X127499901Y-100407007D01*
X127592993Y-100500099D01*
X127707007Y-100565925D01*
X127770590Y-100582962D01*
X127030893Y-101322658D01*
X127113828Y-101382914D01*
X127324197Y-101490102D01*
X127548752Y-101563065D01*
X127548751Y-101563065D01*
X127781948Y-101600000D01*
X128018052Y-101600000D01*
X128251247Y-101563065D01*
X128475802Y-101490102D01*
X128686163Y-101382918D01*
X128686169Y-101382914D01*
X128769104Y-101322658D01*
X128769105Y-101322658D01*
X128029408Y-100582962D01*
X128092993Y-100565925D01*
X128207007Y-100500099D01*
X128300099Y-100407007D01*
X128365925Y-100292993D01*
X128382962Y-100229408D01*
X129122658Y-100969105D01*
X129122658Y-100969104D01*
X129182914Y-100886169D01*
X129182918Y-100886163D01*
X129290102Y-100675802D01*
X129363065Y-100451247D01*
X129400000Y-100218052D01*
X129400000Y-99981947D01*
X129363065Y-99748752D01*
X129290102Y-99524197D01*
X129182914Y-99313828D01*
X129122658Y-99230894D01*
X129122658Y-99230893D01*
X128382962Y-99970590D01*
X128365925Y-99907007D01*
X128300099Y-99792993D01*
X128207007Y-99699901D01*
X128092993Y-99634075D01*
X128029409Y-99617037D01*
X128769105Y-98877340D01*
X128769104Y-98877338D01*
X128686174Y-98817087D01*
X128475802Y-98709897D01*
X128251247Y-98636934D01*
X128251248Y-98636934D01*
X128018052Y-98600000D01*
X127781948Y-98600000D01*
X127548752Y-98636934D01*
X127324197Y-98709897D01*
X127113830Y-98817084D01*
X127030894Y-98877340D01*
X127770591Y-99617037D01*
X127707007Y-99634075D01*
X127592993Y-99699901D01*
X127499901Y-99792993D01*
X127434075Y-99907007D01*
X127417037Y-99970591D01*
X126677340Y-99230894D01*
X126617084Y-99313830D01*
X126509897Y-99524197D01*
X126436934Y-99748752D01*
X126400000Y-99981947D01*
X114900500Y-99981947D01*
X114900500Y-99981902D01*
X114863553Y-99748631D01*
X114799252Y-99550734D01*
X114790568Y-99524008D01*
X114790566Y-99524005D01*
X114790566Y-99524003D01*
X114683477Y-99313830D01*
X114683343Y-99313567D01*
X114544517Y-99122490D01*
X114377510Y-98955483D01*
X114317066Y-98911568D01*
X114313142Y-98908182D01*
X114296887Y-98883006D01*
X114278595Y-98859284D01*
X114277714Y-98853311D01*
X114275243Y-98849484D01*
X114275215Y-98836358D01*
X114273902Y-98827455D01*
X113529408Y-98082962D01*
X113592993Y-98065925D01*
X113707007Y-98000099D01*
X113800099Y-97907007D01*
X113865925Y-97792993D01*
X113882962Y-97729409D01*
X114622658Y-98469105D01*
X114622658Y-98469104D01*
X114682914Y-98386169D01*
X114682918Y-98386163D01*
X114790102Y-98175802D01*
X114863065Y-97951247D01*
X114900000Y-97718052D01*
X114900000Y-97481947D01*
X114863065Y-97248752D01*
X114790102Y-97024197D01*
X114682914Y-96813828D01*
X114613394Y-96718142D01*
X114589914Y-96652335D01*
X114605739Y-96584281D01*
X114639401Y-96545989D01*
X114642329Y-96543796D01*
X114642331Y-96543796D01*
X114757546Y-96457546D01*
X114843796Y-96342331D01*
X114894091Y-96207483D01*
X114900500Y-96147873D01*
X114900499Y-94548104D01*
X114920184Y-94481066D01*
X114972987Y-94435311D01*
X115036482Y-94424686D01*
X126382698Y-95526890D01*
X126447516Y-95552963D01*
X126487951Y-95609944D01*
X126488636Y-95611989D01*
X126509433Y-95675995D01*
X126578110Y-95810781D01*
X126616657Y-95886433D01*
X126755483Y-96077510D01*
X126922490Y-96244517D01*
X127113567Y-96383343D01*
X127212991Y-96434002D01*
X127324003Y-96490566D01*
X127324005Y-96490566D01*
X127324008Y-96490568D01*
X127418745Y-96521350D01*
X127548631Y-96563553D01*
X127781903Y-96600500D01*
X127781908Y-96600500D01*
X128018097Y-96600500D01*
X128251368Y-96563553D01*
X128305424Y-96545989D01*
X128475992Y-96490568D01*
X128686433Y-96383343D01*
X128877510Y-96244517D01*
X129044517Y-96077510D01*
X129183343Y-95886433D01*
X129187448Y-95878375D01*
X129235419Y-95827579D01*
X129303240Y-95810781D01*
X129309862Y-95811243D01*
X130887495Y-95964499D01*
X130952311Y-95990571D01*
X130992746Y-96047552D01*
X130999500Y-96087914D01*
X130999500Y-96147869D01*
X130999501Y-96147876D01*
X131005908Y-96207483D01*
X131056202Y-96342328D01*
X131056206Y-96342335D01*
X131142452Y-96457544D01*
X131142453Y-96457544D01*
X131142454Y-96457546D01*
X131185329Y-96489642D01*
X131260599Y-96545990D01*
X131302469Y-96601924D01*
X131307453Y-96671615D01*
X131286605Y-96718141D01*
X131217087Y-96813824D01*
X131109897Y-97024197D01*
X131036934Y-97248752D01*
X131000000Y-97481947D01*
X131000000Y-97718052D01*
X131036934Y-97951247D01*
X131109897Y-98175802D01*
X131217087Y-98386174D01*
X131277338Y-98469104D01*
X131277340Y-98469105D01*
X132017037Y-97729408D01*
X132034075Y-97792993D01*
X132099901Y-97907007D01*
X132192993Y-98000099D01*
X132307007Y-98065925D01*
X132370590Y-98082962D01*
X131624280Y-98829271D01*
X131615105Y-98872947D01*
X131578739Y-98914615D01*
X131522490Y-98955482D01*
X131355485Y-99122487D01*
X131355485Y-99122488D01*
X131355483Y-99122490D01*
X131308925Y-99186571D01*
X131216657Y-99313566D01*
X131109433Y-99524003D01*
X131036446Y-99748631D01*
X130999500Y-99981902D01*
X130999500Y-100218097D01*
X131036446Y-100451368D01*
X131109433Y-100675996D01*
X131211699Y-100876702D01*
X131216657Y-100886433D01*
X131355483Y-101077510D01*
X131522490Y-101244517D01*
X131713567Y-101383343D01*
X131812991Y-101434002D01*
X131924003Y-101490566D01*
X131924005Y-101490566D01*
X131924008Y-101490568D01*
X131972131Y-101506204D01*
X132148631Y-101563553D01*
X132381903Y-101600500D01*
X132381908Y-101600500D01*
X132618097Y-101600500D01*
X132851368Y-101563553D01*
X132880563Y-101554067D01*
X133075992Y-101490568D01*
X133286433Y-101383343D01*
X133477510Y-101244517D01*
X133644517Y-101077510D01*
X133783343Y-100886433D01*
X133890568Y-100675992D01*
X133963553Y-100451368D01*
X133965189Y-100441036D01*
X134000500Y-100218097D01*
X134000500Y-99981902D01*
X133963553Y-99748631D01*
X133899252Y-99550734D01*
X133890568Y-99524008D01*
X133890566Y-99524005D01*
X133890566Y-99524003D01*
X133783477Y-99313830D01*
X133783343Y-99313567D01*
X133644517Y-99122490D01*
X133477510Y-98955483D01*
X133421259Y-98914614D01*
X133378595Y-98859284D01*
X133373902Y-98827455D01*
X132629408Y-98082962D01*
X132692993Y-98065925D01*
X132807007Y-98000099D01*
X132900099Y-97907007D01*
X132965925Y-97792993D01*
X132982962Y-97729409D01*
X133722658Y-98469105D01*
X133722658Y-98469104D01*
X133782914Y-98386169D01*
X133782918Y-98386163D01*
X133890102Y-98175802D01*
X133963065Y-97951247D01*
X134000000Y-97718052D01*
X134000000Y-97481947D01*
X133963065Y-97248752D01*
X133890102Y-97024197D01*
X133782914Y-96813828D01*
X133713394Y-96718142D01*
X133689914Y-96652335D01*
X133705739Y-96584281D01*
X133739401Y-96545989D01*
X133742329Y-96543796D01*
X133742331Y-96543796D01*
X133857546Y-96457546D01*
X133943796Y-96342331D01*
X133943797Y-96342326D01*
X133946491Y-96337394D01*
X133995893Y-96287985D01*
X134064165Y-96273129D01*
X134067205Y-96273385D01*
X136293374Y-96489642D01*
X136358196Y-96515716D01*
X136398631Y-96572697D01*
X136405237Y-96606998D01*
X137132796Y-111470010D01*
X137116412Y-111537932D01*
X137065909Y-111586214D01*
X136999217Y-111599691D01*
X136994250Y-111599300D01*
X136377577Y-112215973D01*
X136364641Y-112184742D01*
X136282563Y-112061903D01*
X136178097Y-111957437D01*
X136055258Y-111875359D01*
X136024024Y-111862421D01*
X136640698Y-111245748D01*
X136538583Y-111171557D01*
X136314184Y-111057219D01*
X136074669Y-110979397D01*
X135825928Y-110940000D01*
X135574072Y-110940000D01*
X135325330Y-110979397D01*
X135085815Y-111057219D01*
X134861413Y-111171559D01*
X134759301Y-111245747D01*
X134759300Y-111245748D01*
X135375974Y-111862421D01*
X135344742Y-111875359D01*
X135221903Y-111957437D01*
X135117437Y-112061903D01*
X135035359Y-112184742D01*
X135022421Y-112215974D01*
X134405748Y-111599300D01*
X134405747Y-111599301D01*
X134331559Y-111701413D01*
X134217219Y-111925815D01*
X134139397Y-112165330D01*
X134100000Y-112414071D01*
X134100000Y-112665928D01*
X134139397Y-112914669D01*
X134217219Y-113154184D01*
X134331557Y-113378583D01*
X134405748Y-113480697D01*
X134405748Y-113480698D01*
X135022421Y-112864024D01*
X135035359Y-112895258D01*
X135117437Y-113018097D01*
X135221903Y-113122563D01*
X135344742Y-113204641D01*
X135375974Y-113217577D01*
X134759300Y-113834250D01*
X134761598Y-113863449D01*
X134747233Y-113931827D01*
X134698181Y-113981583D01*
X134630016Y-113996921D01*
X134618583Y-113995650D01*
X134516611Y-113979500D01*
X134343389Y-113979500D01*
X134303728Y-113985781D01*
X134172302Y-114006597D01*
X134007552Y-114060128D01*
X133853211Y-114138768D01*
X133797763Y-114179054D01*
X133713072Y-114240586D01*
X133713070Y-114240588D01*
X133713069Y-114240588D01*
X133590588Y-114363069D01*
X133590588Y-114363070D01*
X133590586Y-114363072D01*
X133546859Y-114423256D01*
X133488768Y-114503211D01*
X133410128Y-114657552D01*
X133356597Y-114822302D01*
X133329500Y-114993389D01*
X133329500Y-115166611D01*
X133356598Y-115337701D01*
X133410127Y-115502445D01*
X133488768Y-115656788D01*
X133590586Y-115796928D01*
X133713072Y-115919414D01*
X133853212Y-116021232D01*
X134007555Y-116099873D01*
X134172299Y-116153402D01*
X134343389Y-116180500D01*
X134343390Y-116180500D01*
X134516610Y-116180500D01*
X134516611Y-116180500D01*
X134687701Y-116153402D01*
X134852445Y-116099873D01*
X135006788Y-116021232D01*
X135146928Y-115919414D01*
X135269414Y-115796928D01*
X135371232Y-115656788D01*
X135449873Y-115502445D01*
X135503402Y-115337701D01*
X135530500Y-115166611D01*
X135530500Y-114993389D01*
X135503402Y-114822299D01*
X135449873Y-114657555D01*
X135371232Y-114503212D01*
X135269414Y-114363072D01*
X135216882Y-114310540D01*
X135183397Y-114249217D01*
X135188381Y-114179525D01*
X135230253Y-114123592D01*
X135295717Y-114099175D01*
X135323961Y-114100386D01*
X135574072Y-114140000D01*
X135825928Y-114140000D01*
X136074669Y-114100602D01*
X136314184Y-114022780D01*
X136538575Y-113908446D01*
X136538581Y-113908442D01*
X136640697Y-113834250D01*
X136640698Y-113834250D01*
X136024025Y-113217578D01*
X136055258Y-113204641D01*
X136178097Y-113122563D01*
X136282563Y-113018097D01*
X136364641Y-112895258D01*
X136377578Y-112864025D01*
X136994249Y-113480697D01*
X137009307Y-113459973D01*
X137064637Y-113417307D01*
X137134250Y-113411328D01*
X137196046Y-113443933D01*
X137230403Y-113504772D01*
X137233478Y-113526795D01*
X137290144Y-114684409D01*
X137289231Y-114706657D01*
X137259500Y-114932493D01*
X137259500Y-115227513D01*
X137291571Y-115471113D01*
X137298007Y-115519993D01*
X137298008Y-115519995D01*
X137298009Y-115519999D01*
X137335003Y-115658069D01*
X137339080Y-115684098D01*
X138150921Y-132268836D01*
X138134537Y-132336758D01*
X138102557Y-132373273D01*
X138022960Y-132434352D01*
X138022949Y-132434362D01*
X137912181Y-132545130D01*
X137850858Y-132578615D01*
X137781166Y-132573631D01*
X137725233Y-132531759D01*
X137700816Y-132466295D01*
X137700500Y-132457449D01*
X137700500Y-130931046D01*
X137700500Y-130931044D01*
X137659577Y-130778317D01*
X137644044Y-130751413D01*
X137580524Y-130641391D01*
X137580521Y-130641387D01*
X137580520Y-130641385D01*
X137468716Y-130529581D01*
X137468715Y-130529580D01*
X137464385Y-130525250D01*
X137464374Y-130525240D01*
X135627489Y-128688355D01*
X135627487Y-128688352D01*
X135508616Y-128569481D01*
X135508615Y-128569480D01*
X135421803Y-128519360D01*
X135421803Y-128519359D01*
X135421799Y-128519358D01*
X135371684Y-128490423D01*
X135218956Y-128449499D01*
X135060842Y-128449499D01*
X135053246Y-128449499D01*
X135053230Y-128449500D01*
X124566300Y-128449500D01*
X124499261Y-128429815D01*
X124455815Y-128381795D01*
X124368870Y-128211155D01*
X124349952Y-128185117D01*
X124220798Y-128007350D01*
X124220794Y-128007345D01*
X124042654Y-127829205D01*
X124042649Y-127829201D01*
X123838848Y-127681132D01*
X123838847Y-127681131D01*
X123838845Y-127681130D01*
X123768747Y-127645413D01*
X123614383Y-127566760D01*
X123374785Y-127488910D01*
X123341884Y-127483699D01*
X123125962Y-127449500D01*
X122874038Y-127449500D01*
X122749626Y-127469205D01*
X122625214Y-127488910D01*
X122385616Y-127566760D01*
X122161151Y-127681132D01*
X121957350Y-127829201D01*
X121957345Y-127829205D01*
X121779205Y-128007345D01*
X121779201Y-128007350D01*
X121631132Y-128211151D01*
X121516760Y-128435616D01*
X121438910Y-128675214D01*
X121399500Y-128924038D01*
X121399500Y-129175961D01*
X121438910Y-129424785D01*
X121516760Y-129664383D01*
X121631132Y-129888848D01*
X121779201Y-130092649D01*
X121779205Y-130092654D01*
X121957345Y-130270794D01*
X121957350Y-130270798D01*
X122135117Y-130399952D01*
X122161155Y-130418870D01*
X122304184Y-130491747D01*
X122385616Y-130533239D01*
X122385618Y-130533239D01*
X122385621Y-130533241D01*
X122625215Y-130611090D01*
X122874038Y-130650500D01*
X122874039Y-130650500D01*
X123125961Y-130650500D01*
X123125962Y-130650500D01*
X123374785Y-130611090D01*
X123614379Y-130533241D01*
X123838845Y-130418870D01*
X124042656Y-130270793D01*
X124220793Y-130092656D01*
X124368870Y-129888845D01*
X124455815Y-129718204D01*
X124503789Y-129667409D01*
X124566300Y-129650500D01*
X134839802Y-129650500D01*
X134906841Y-129670185D01*
X134927483Y-129686819D01*
X135140532Y-129899868D01*
X135174017Y-129961191D01*
X135169033Y-130030883D01*
X135127161Y-130086816D01*
X135091180Y-130105476D01*
X135085816Y-130107219D01*
X135085814Y-130107219D01*
X134861413Y-130221559D01*
X134759301Y-130295747D01*
X134759300Y-130295748D01*
X135375974Y-130912421D01*
X135344742Y-130925359D01*
X135221903Y-131007437D01*
X135117437Y-131111903D01*
X135035359Y-131234742D01*
X135022421Y-131265974D01*
X134405748Y-130649300D01*
X134405747Y-130649301D01*
X134331559Y-130751413D01*
X134217219Y-130975815D01*
X134139397Y-131215330D01*
X134100000Y-131464071D01*
X134100000Y-131715928D01*
X134139397Y-131964669D01*
X134217219Y-132204184D01*
X134331557Y-132428583D01*
X134405748Y-132530697D01*
X134405748Y-132530698D01*
X135022421Y-131914024D01*
X135035359Y-131945258D01*
X135117437Y-132068097D01*
X135221903Y-132172563D01*
X135344742Y-132254641D01*
X135375973Y-132267577D01*
X134759300Y-132884250D01*
X134761598Y-132913449D01*
X134747233Y-132981827D01*
X134698181Y-133031583D01*
X134630016Y-133046921D01*
X134618583Y-133045650D01*
X134516611Y-133029500D01*
X134343389Y-133029500D01*
X134303728Y-133035781D01*
X134172302Y-133056597D01*
X134007552Y-133110128D01*
X133853211Y-133188768D01*
X133797115Y-133229525D01*
X133713072Y-133290586D01*
X133713070Y-133290588D01*
X133713069Y-133290588D01*
X133590588Y-133413069D01*
X133590588Y-133413070D01*
X133590586Y-133413072D01*
X133546859Y-133473256D01*
X133488768Y-133553211D01*
X133410128Y-133707552D01*
X133356597Y-133872302D01*
X133339146Y-133982486D01*
X133329500Y-134043389D01*
X133329500Y-134216611D01*
X133356598Y-134387701D01*
X133410127Y-134552445D01*
X133488768Y-134706788D01*
X133590586Y-134846928D01*
X133713072Y-134969414D01*
X133853212Y-135071232D01*
X134007555Y-135149873D01*
X134172299Y-135203402D01*
X134343389Y-135230500D01*
X134343390Y-135230500D01*
X134516610Y-135230500D01*
X134516611Y-135230500D01*
X134687701Y-135203402D01*
X134852445Y-135149873D01*
X135006788Y-135071232D01*
X135146928Y-134969414D01*
X135269414Y-134846928D01*
X135371232Y-134706788D01*
X135449873Y-134552445D01*
X135503402Y-134387701D01*
X135530500Y-134216611D01*
X135530500Y-134043389D01*
X135503402Y-133872299D01*
X135449873Y-133707555D01*
X135371232Y-133553212D01*
X135269414Y-133413072D01*
X135216882Y-133360540D01*
X135183397Y-133299217D01*
X135188381Y-133229525D01*
X135230253Y-133173592D01*
X135295717Y-133149175D01*
X135323961Y-133150386D01*
X135574072Y-133190000D01*
X135825928Y-133190000D01*
X136074668Y-133150602D01*
X136314185Y-133072779D01*
X136319202Y-133070223D01*
X136387871Y-133057325D01*
X136452612Y-133083599D01*
X136492871Y-133140704D01*
X136499500Y-133180706D01*
X136499500Y-134499902D01*
X136479815Y-134566941D01*
X136463181Y-134587583D01*
X135207584Y-135843181D01*
X135146261Y-135876666D01*
X135119903Y-135879500D01*
X122192551Y-135879500D01*
X122125512Y-135859815D01*
X122079757Y-135807011D01*
X122069813Y-135737853D01*
X122098838Y-135674297D01*
X122104870Y-135667819D01*
X122155641Y-135617047D01*
X122155646Y-135617042D01*
X122335238Y-135382994D01*
X122482743Y-135127507D01*
X122595639Y-134854952D01*
X122671993Y-134569993D01*
X122710500Y-134277506D01*
X122710500Y-134043389D01*
X124439500Y-134043389D01*
X124439500Y-134216611D01*
X124466598Y-134387701D01*
X124520127Y-134552445D01*
X124598768Y-134706788D01*
X124700586Y-134846928D01*
X124823072Y-134969414D01*
X124963212Y-135071232D01*
X125117555Y-135149873D01*
X125282299Y-135203402D01*
X125453389Y-135230500D01*
X125453390Y-135230500D01*
X125626610Y-135230500D01*
X125626611Y-135230500D01*
X125797701Y-135203402D01*
X125962445Y-135149873D01*
X126116788Y-135071232D01*
X126256928Y-134969414D01*
X126379414Y-134846928D01*
X126481232Y-134706788D01*
X126559873Y-134552445D01*
X126613402Y-134387701D01*
X126640500Y-134216611D01*
X126640500Y-134043389D01*
X126613402Y-133872299D01*
X126559873Y-133707555D01*
X126481232Y-133553212D01*
X126379414Y-133413072D01*
X126256928Y-133290586D01*
X126116788Y-133188768D01*
X125962445Y-133110127D01*
X125797701Y-133056598D01*
X125797699Y-133056597D01*
X125797698Y-133056597D01*
X125666271Y-133035781D01*
X125626611Y-133029500D01*
X125453389Y-133029500D01*
X125413728Y-133035781D01*
X125282302Y-133056597D01*
X125117552Y-133110128D01*
X124963211Y-133188768D01*
X124907115Y-133229525D01*
X124823072Y-133290586D01*
X124823070Y-133290588D01*
X124823069Y-133290588D01*
X124700588Y-133413069D01*
X124700588Y-133413070D01*
X124700586Y-133413072D01*
X124656859Y-133473256D01*
X124598768Y-133553211D01*
X124520128Y-133707552D01*
X124466597Y-133872302D01*
X124449146Y-133982486D01*
X124439500Y-134043389D01*
X122710500Y-134043389D01*
X122710500Y-133982494D01*
X122671993Y-133690007D01*
X122595639Y-133405048D01*
X122482743Y-133132493D01*
X122462047Y-133096647D01*
X122335238Y-132877006D01*
X122155647Y-132642959D01*
X122155641Y-132642952D01*
X121947047Y-132434358D01*
X121947040Y-132434352D01*
X121712993Y-132254761D01*
X121457510Y-132107258D01*
X121457500Y-132107254D01*
X121184961Y-131994364D01*
X121184954Y-131994362D01*
X121184952Y-131994361D01*
X120899993Y-131918007D01*
X120851113Y-131911571D01*
X120607513Y-131879500D01*
X120607506Y-131879500D01*
X120312494Y-131879500D01*
X120312486Y-131879500D01*
X120034085Y-131916153D01*
X120020007Y-131918007D01*
X119845861Y-131964669D01*
X119735048Y-131994361D01*
X119735038Y-131994364D01*
X119462499Y-132107254D01*
X119462489Y-132107258D01*
X119207006Y-132254761D01*
X118972959Y-132434352D01*
X118972952Y-132434358D01*
X118764358Y-132642952D01*
X118764352Y-132642959D01*
X118584761Y-132877006D01*
X118437258Y-133132489D01*
X118437254Y-133132499D01*
X118324364Y-133405038D01*
X118324361Y-133405048D01*
X118248008Y-133690004D01*
X118248006Y-133690015D01*
X118209500Y-133982486D01*
X118209500Y-134277513D01*
X118238779Y-134499902D01*
X118248007Y-134569993D01*
X118322212Y-134846930D01*
X118324361Y-134854951D01*
X118324364Y-134854961D01*
X118437254Y-135127500D01*
X118437258Y-135127510D01*
X118584761Y-135382993D01*
X118764352Y-135617040D01*
X118764358Y-135617047D01*
X118815130Y-135667819D01*
X118848615Y-135729142D01*
X118843631Y-135798834D01*
X118801759Y-135854767D01*
X118736295Y-135879184D01*
X118727449Y-135879500D01*
X103142551Y-135879500D01*
X103075512Y-135859815D01*
X103029757Y-135807011D01*
X103019813Y-135737853D01*
X103048838Y-135674297D01*
X103054870Y-135667819D01*
X103105641Y-135617047D01*
X103105646Y-135617042D01*
X103285238Y-135382994D01*
X103432743Y-135127507D01*
X103545639Y-134854952D01*
X103621993Y-134569993D01*
X103660500Y-134277506D01*
X103660500Y-134043389D01*
X105389500Y-134043389D01*
X105389500Y-134216611D01*
X105416598Y-134387701D01*
X105470127Y-134552445D01*
X105548768Y-134706788D01*
X105650586Y-134846928D01*
X105773072Y-134969414D01*
X105913212Y-135071232D01*
X106067555Y-135149873D01*
X106232299Y-135203402D01*
X106403389Y-135230500D01*
X106403390Y-135230500D01*
X106576610Y-135230500D01*
X106576611Y-135230500D01*
X106747701Y-135203402D01*
X106912445Y-135149873D01*
X107066788Y-135071232D01*
X107206928Y-134969414D01*
X107329414Y-134846928D01*
X107431232Y-134706788D01*
X107509873Y-134552445D01*
X107563402Y-134387701D01*
X107590500Y-134216611D01*
X107590500Y-134043389D01*
X114279500Y-134043389D01*
X114279500Y-134216611D01*
X114306598Y-134387701D01*
X114360127Y-134552445D01*
X114438768Y-134706788D01*
X114540586Y-134846928D01*
X114663072Y-134969414D01*
X114803212Y-135071232D01*
X114957555Y-135149873D01*
X115122299Y-135203402D01*
X115293389Y-135230500D01*
X115293390Y-135230500D01*
X115466610Y-135230500D01*
X115466611Y-135230500D01*
X115637701Y-135203402D01*
X115802445Y-135149873D01*
X115956788Y-135071232D01*
X116096928Y-134969414D01*
X116219414Y-134846928D01*
X116321232Y-134706788D01*
X116399873Y-134552445D01*
X116453402Y-134387701D01*
X116480500Y-134216611D01*
X116480500Y-134043389D01*
X116453402Y-133872299D01*
X116399873Y-133707555D01*
X116321232Y-133553212D01*
X116219414Y-133413072D01*
X116166882Y-133360540D01*
X116133397Y-133299217D01*
X116138381Y-133229525D01*
X116180253Y-133173592D01*
X116245717Y-133149175D01*
X116273961Y-133150386D01*
X116524072Y-133190000D01*
X116775928Y-133190000D01*
X117024669Y-133150602D01*
X117264184Y-133072780D01*
X117488575Y-132958446D01*
X117488581Y-132958442D01*
X117590697Y-132884250D01*
X117590698Y-132884250D01*
X116974025Y-132267578D01*
X117005258Y-132254641D01*
X117128097Y-132172563D01*
X117232563Y-132068097D01*
X117314641Y-131945258D01*
X117327577Y-131914025D01*
X117944250Y-132530698D01*
X117944250Y-132530697D01*
X118018442Y-132428581D01*
X118018446Y-132428575D01*
X118132780Y-132204184D01*
X118210602Y-131964669D01*
X118250000Y-131715928D01*
X118250000Y-131464071D01*
X118210602Y-131215330D01*
X118132780Y-130975815D01*
X118018442Y-130751416D01*
X117944250Y-130649301D01*
X117944250Y-130649300D01*
X117327577Y-131265973D01*
X117314641Y-131234742D01*
X117232563Y-131111903D01*
X117128097Y-131007437D01*
X117005258Y-130925359D01*
X116974024Y-130912421D01*
X117590698Y-130295748D01*
X117488583Y-130221557D01*
X117264184Y-130107219D01*
X117024669Y-130029397D01*
X116775928Y-129990000D01*
X116524072Y-129990000D01*
X116275330Y-130029397D01*
X116035815Y-130107219D01*
X115811413Y-130221559D01*
X115709301Y-130295747D01*
X115709300Y-130295748D01*
X116325974Y-130912421D01*
X116294742Y-130925359D01*
X116171903Y-131007437D01*
X116067437Y-131111903D01*
X115985359Y-131234742D01*
X115972421Y-131265974D01*
X115355748Y-130649300D01*
X115355747Y-130649301D01*
X115281559Y-130751413D01*
X115167219Y-130975815D01*
X115089397Y-131215330D01*
X115050000Y-131464071D01*
X115050000Y-131715928D01*
X115089397Y-131964669D01*
X115167219Y-132204184D01*
X115281557Y-132428583D01*
X115355748Y-132530697D01*
X115355748Y-132530698D01*
X115972421Y-131914024D01*
X115985359Y-131945258D01*
X116067437Y-132068097D01*
X116171903Y-132172563D01*
X116294742Y-132254641D01*
X116325974Y-132267577D01*
X115709300Y-132884250D01*
X115711598Y-132913449D01*
X115697233Y-132981827D01*
X115648181Y-133031583D01*
X115580016Y-133046921D01*
X115568583Y-133045650D01*
X115466611Y-133029500D01*
X115293389Y-133029500D01*
X115253728Y-133035781D01*
X115122302Y-133056597D01*
X114957552Y-133110128D01*
X114803211Y-133188768D01*
X114747115Y-133229525D01*
X114663072Y-133290586D01*
X114663070Y-133290588D01*
X114663069Y-133290588D01*
X114540588Y-133413069D01*
X114540588Y-133413070D01*
X114540586Y-133413072D01*
X114496859Y-133473256D01*
X114438768Y-133553211D01*
X114360128Y-133707552D01*
X114306597Y-133872302D01*
X114289146Y-133982486D01*
X114279500Y-134043389D01*
X107590500Y-134043389D01*
X107563402Y-133872299D01*
X107509873Y-133707555D01*
X107431232Y-133553212D01*
X107329414Y-133413072D01*
X107206928Y-133290586D01*
X107066788Y-133188768D01*
X106912445Y-133110127D01*
X106747701Y-133056598D01*
X106747699Y-133056597D01*
X106747698Y-133056597D01*
X106616271Y-133035781D01*
X106576611Y-133029500D01*
X106403389Y-133029500D01*
X106363728Y-133035781D01*
X106232302Y-133056597D01*
X106067552Y-133110128D01*
X105913211Y-133188768D01*
X105857115Y-133229525D01*
X105773072Y-133290586D01*
X105773070Y-133290588D01*
X105773069Y-133290588D01*
X105650588Y-133413069D01*
X105650588Y-133413070D01*
X105650586Y-133413072D01*
X105606859Y-133473256D01*
X105548768Y-133553211D01*
X105470128Y-133707552D01*
X105416597Y-133872302D01*
X105399146Y-133982486D01*
X105389500Y-134043389D01*
X103660500Y-134043389D01*
X103660500Y-133982494D01*
X103621993Y-133690007D01*
X103545639Y-133405048D01*
X103432743Y-133132493D01*
X103412047Y-133096647D01*
X103285238Y-132877006D01*
X103105647Y-132642959D01*
X103105641Y-132642952D01*
X102897047Y-132434358D01*
X102897040Y-132434352D01*
X102662993Y-132254761D01*
X102407510Y-132107258D01*
X102407500Y-132107254D01*
X102134961Y-131994364D01*
X102134954Y-131994362D01*
X102134952Y-131994361D01*
X101849993Y-131918007D01*
X101801113Y-131911571D01*
X101557513Y-131879500D01*
X101557506Y-131879500D01*
X101262494Y-131879500D01*
X101262486Y-131879500D01*
X100984085Y-131916153D01*
X100970007Y-131918007D01*
X100795861Y-131964669D01*
X100685048Y-131994361D01*
X100685038Y-131994364D01*
X100412499Y-132107254D01*
X100412489Y-132107258D01*
X100157006Y-132254761D01*
X99922959Y-132434352D01*
X99922952Y-132434358D01*
X99714358Y-132642952D01*
X99714352Y-132642959D01*
X99534761Y-132877006D01*
X99387258Y-133132489D01*
X99387254Y-133132499D01*
X99274364Y-133405038D01*
X99274361Y-133405048D01*
X99198008Y-133690004D01*
X99198006Y-133690015D01*
X99159500Y-133982486D01*
X99159500Y-134054305D01*
X99139815Y-134121344D01*
X99087011Y-134167099D01*
X99017853Y-134177043D01*
X98954297Y-134148018D01*
X98947819Y-134141986D01*
X98103990Y-133298157D01*
X98070505Y-133236834D01*
X98075489Y-133167142D01*
X98117361Y-133111209D01*
X98153354Y-133092545D01*
X98214182Y-133072781D01*
X98438575Y-132958446D01*
X98438581Y-132958442D01*
X98540697Y-132884250D01*
X98540698Y-132884250D01*
X97924025Y-132267578D01*
X97955258Y-132254641D01*
X98078097Y-132172563D01*
X98182563Y-132068097D01*
X98264641Y-131945258D01*
X98277577Y-131914025D01*
X98894250Y-132530698D01*
X98894250Y-132530697D01*
X98968442Y-132428581D01*
X98968446Y-132428575D01*
X99082780Y-132204184D01*
X99160602Y-131964669D01*
X99200000Y-131715928D01*
X99200000Y-131464071D01*
X99160602Y-131215330D01*
X99082780Y-130975815D01*
X98968442Y-130751416D01*
X98894250Y-130649301D01*
X98894250Y-130649300D01*
X98277577Y-131265973D01*
X98264641Y-131234742D01*
X98182563Y-131111903D01*
X98078097Y-131007437D01*
X97955258Y-130925359D01*
X97924024Y-130912421D01*
X98540698Y-130295748D01*
X98438583Y-130221557D01*
X98214184Y-130107219D01*
X97974669Y-130029397D01*
X97725928Y-129990000D01*
X97474072Y-129990000D01*
X97225330Y-130029397D01*
X96985815Y-130107219D01*
X96761413Y-130221559D01*
X96659301Y-130295747D01*
X96659300Y-130295748D01*
X97275974Y-130912421D01*
X97244742Y-130925359D01*
X97121903Y-131007437D01*
X97017437Y-131111903D01*
X96935359Y-131234742D01*
X96922421Y-131265974D01*
X96305748Y-130649300D01*
X96305747Y-130649301D01*
X96231559Y-130751413D01*
X96117220Y-130975814D01*
X96097454Y-131036647D01*
X96058016Y-131094322D01*
X95993657Y-131121520D01*
X95924811Y-131109605D01*
X95891842Y-131086009D01*
X94701819Y-129895986D01*
X94668334Y-129834663D01*
X94665500Y-129808305D01*
X94665500Y-107189059D01*
X94665501Y-107189046D01*
X94665501Y-107020945D01*
X94665501Y-107020943D01*
X94624577Y-106868215D01*
X94595639Y-106818095D01*
X94545520Y-106731284D01*
X94433716Y-106619480D01*
X94433715Y-106619479D01*
X94429385Y-106615149D01*
X94429374Y-106615139D01*
X94294841Y-106480606D01*
X94261356Y-106419283D01*
X94258528Y-106391679D01*
X94261090Y-106138721D01*
X94262608Y-106120609D01*
X94265500Y-106102352D01*
X94265500Y-105897648D01*
X94265275Y-105896229D01*
X94263754Y-105875584D01*
X94314371Y-100876702D01*
X94320645Y-100856106D01*
X94322182Y-100834627D01*
X94330626Y-100823346D01*
X94334733Y-100809869D01*
X94351148Y-100795933D01*
X94364054Y-100778694D01*
X94377255Y-100773770D01*
X94387997Y-100764651D01*
X94409342Y-100761802D01*
X94429518Y-100754277D01*
X94443285Y-100757272D01*
X94457253Y-100755408D01*
X94476749Y-100764551D01*
X94497791Y-100769129D01*
X94516712Y-100783293D01*
X94520511Y-100785075D01*
X94526045Y-100790280D01*
X94700139Y-100964374D01*
X94700149Y-100964385D01*
X94704479Y-100968715D01*
X94704480Y-100968716D01*
X94816284Y-101080520D01*
X94903095Y-101130639D01*
X94903097Y-101130641D01*
X94941151Y-101152611D01*
X94953215Y-101159577D01*
X95105943Y-101200500D01*
X95175500Y-101200500D01*
X95242539Y-101220185D01*
X95288294Y-101272989D01*
X95299500Y-101324500D01*
X95299500Y-114013330D01*
X95299499Y-114013348D01*
X95299499Y-114179054D01*
X95299498Y-114179054D01*
X95299499Y-114179057D01*
X95334730Y-114310540D01*
X95340424Y-114331787D01*
X95353853Y-114355046D01*
X95353854Y-114355048D01*
X95419477Y-114468712D01*
X95419481Y-114468717D01*
X95538349Y-114587585D01*
X95538355Y-114587590D01*
X103313181Y-122362416D01*
X103346666Y-122423739D01*
X103349500Y-122450097D01*
X103349500Y-127483699D01*
X103329815Y-127550738D01*
X103281795Y-127594184D01*
X103111151Y-127681132D01*
X102907350Y-127829201D01*
X102907345Y-127829205D01*
X102729205Y-128007345D01*
X102729201Y-128007350D01*
X102581132Y-128211151D01*
X102466760Y-128435616D01*
X102388910Y-128675214D01*
X102349500Y-128924038D01*
X102349500Y-129175961D01*
X102388910Y-129424785D01*
X102466760Y-129664383D01*
X102581132Y-129888848D01*
X102729201Y-130092649D01*
X102729205Y-130092654D01*
X102907345Y-130270794D01*
X102907350Y-130270798D01*
X103085117Y-130399952D01*
X103111155Y-130418870D01*
X103254184Y-130491747D01*
X103335616Y-130533239D01*
X103335618Y-130533239D01*
X103335621Y-130533241D01*
X103575215Y-130611090D01*
X103824038Y-130650500D01*
X103824039Y-130650500D01*
X104075961Y-130650500D01*
X104075962Y-130650500D01*
X104324785Y-130611090D01*
X104564379Y-130533241D01*
X104788845Y-130418870D01*
X104992656Y-130270793D01*
X105170793Y-130092656D01*
X105318870Y-129888845D01*
X105433241Y-129664379D01*
X105511090Y-129424785D01*
X105550500Y-129175962D01*
X105550500Y-128924038D01*
X105511090Y-128675215D01*
X105433241Y-128435621D01*
X105433239Y-128435618D01*
X105433239Y-128435616D01*
X105391747Y-128354184D01*
X105318870Y-128211155D01*
X105299952Y-128185117D01*
X105170798Y-128007350D01*
X105170794Y-128007345D01*
X104992654Y-127829205D01*
X104992649Y-127829201D01*
X104788848Y-127681132D01*
X104788847Y-127681131D01*
X104788845Y-127681130D01*
X104719186Y-127645637D01*
X104618205Y-127594184D01*
X104567409Y-127546209D01*
X104550500Y-127483699D01*
X104550500Y-122070945D01*
X104550500Y-122070943D01*
X104509577Y-121918216D01*
X104509577Y-121918215D01*
X104509577Y-121918214D01*
X104480639Y-121868095D01*
X104480637Y-121868092D01*
X104430520Y-121781284D01*
X104318716Y-121669480D01*
X104318715Y-121669479D01*
X104314385Y-121665149D01*
X104314374Y-121665139D01*
X97642624Y-114993389D01*
X114279500Y-114993389D01*
X114279500Y-115166611D01*
X114306598Y-115337701D01*
X114360127Y-115502445D01*
X114438768Y-115656788D01*
X114540586Y-115796928D01*
X114663072Y-115919414D01*
X114803212Y-116021232D01*
X114957555Y-116099873D01*
X115122299Y-116153402D01*
X115293389Y-116180500D01*
X115293390Y-116180500D01*
X115466610Y-116180500D01*
X115466611Y-116180500D01*
X115637701Y-116153402D01*
X115802445Y-116099873D01*
X115956788Y-116021232D01*
X116096928Y-115919414D01*
X116219414Y-115796928D01*
X116321232Y-115656788D01*
X116399873Y-115502445D01*
X116453402Y-115337701D01*
X116480500Y-115166611D01*
X116480500Y-114993389D01*
X116470854Y-114932486D01*
X118209500Y-114932486D01*
X118209500Y-115227513D01*
X118241571Y-115471113D01*
X118248007Y-115519993D01*
X118322212Y-115796930D01*
X118324361Y-115804951D01*
X118324364Y-115804961D01*
X118437254Y-116077500D01*
X118437258Y-116077510D01*
X118584761Y-116332993D01*
X118764352Y-116567040D01*
X118764358Y-116567047D01*
X118972952Y-116775641D01*
X118972959Y-116775647D01*
X119207006Y-116955238D01*
X119462489Y-117102741D01*
X119462490Y-117102741D01*
X119462493Y-117102743D01*
X119735048Y-117215639D01*
X120020007Y-117291993D01*
X120312494Y-117330500D01*
X120312501Y-117330500D01*
X120607499Y-117330500D01*
X120607506Y-117330500D01*
X120899993Y-117291993D01*
X121184952Y-117215639D01*
X121457507Y-117102743D01*
X121712994Y-116955238D01*
X121947042Y-116775646D01*
X122155646Y-116567042D01*
X122335238Y-116332994D01*
X122482743Y-116077507D01*
X122595639Y-115804952D01*
X122671993Y-115519993D01*
X122710500Y-115227506D01*
X122710500Y-114993389D01*
X124439500Y-114993389D01*
X124439500Y-115166611D01*
X124466598Y-115337701D01*
X124520127Y-115502445D01*
X124598768Y-115656788D01*
X124700586Y-115796928D01*
X124823072Y-115919414D01*
X124963212Y-116021232D01*
X125117555Y-116099873D01*
X125282299Y-116153402D01*
X125453389Y-116180500D01*
X125453390Y-116180500D01*
X125626610Y-116180500D01*
X125626611Y-116180500D01*
X125797701Y-116153402D01*
X125962445Y-116099873D01*
X126116788Y-116021232D01*
X126256928Y-115919414D01*
X126379414Y-115796928D01*
X126481232Y-115656788D01*
X126559873Y-115502445D01*
X126613402Y-115337701D01*
X126640500Y-115166611D01*
X126640500Y-114993389D01*
X126613402Y-114822299D01*
X126559873Y-114657555D01*
X126481232Y-114503212D01*
X126379414Y-114363072D01*
X126256928Y-114240586D01*
X126116788Y-114138768D01*
X125962445Y-114060127D01*
X125797701Y-114006598D01*
X125797699Y-114006597D01*
X125797698Y-114006597D01*
X125666271Y-113985781D01*
X125626611Y-113979500D01*
X125453389Y-113979500D01*
X125413728Y-113985781D01*
X125282302Y-114006597D01*
X125117552Y-114060128D01*
X124963211Y-114138768D01*
X124907763Y-114179054D01*
X124823072Y-114240586D01*
X124823070Y-114240588D01*
X124823069Y-114240588D01*
X124700588Y-114363069D01*
X124700588Y-114363070D01*
X124700586Y-114363072D01*
X124656859Y-114423256D01*
X124598768Y-114503211D01*
X124520128Y-114657552D01*
X124466597Y-114822302D01*
X124439500Y-114993389D01*
X122710500Y-114993389D01*
X122710500Y-114932494D01*
X122671993Y-114640007D01*
X122595639Y-114355048D01*
X122482743Y-114082493D01*
X122432604Y-113995650D01*
X122335238Y-113827006D01*
X122155647Y-113592959D01*
X122155641Y-113592952D01*
X121947047Y-113384358D01*
X121947040Y-113384352D01*
X121712993Y-113204761D01*
X121457510Y-113057258D01*
X121457500Y-113057254D01*
X121184961Y-112944364D01*
X121184954Y-112944362D01*
X121184952Y-112944361D01*
X120899993Y-112868007D01*
X120851113Y-112861571D01*
X120607513Y-112829500D01*
X120607506Y-112829500D01*
X120312494Y-112829500D01*
X120312486Y-112829500D01*
X120034085Y-112866153D01*
X120020007Y-112868007D01*
X119845861Y-112914669D01*
X119735048Y-112944361D01*
X119735038Y-112944364D01*
X119462499Y-113057254D01*
X119462489Y-113057258D01*
X119207006Y-113204761D01*
X118972959Y-113384352D01*
X118972952Y-113384358D01*
X118764358Y-113592952D01*
X118764352Y-113592959D01*
X118584761Y-113827006D01*
X118437258Y-114082489D01*
X118437254Y-114082499D01*
X118324364Y-114355038D01*
X118324362Y-114355044D01*
X118324361Y-114355048D01*
X118262052Y-114587590D01*
X118248008Y-114640004D01*
X118248006Y-114640015D01*
X118209500Y-114932486D01*
X116470854Y-114932486D01*
X116453402Y-114822299D01*
X116399873Y-114657555D01*
X116321232Y-114503212D01*
X116219414Y-114363072D01*
X116166882Y-114310540D01*
X116133397Y-114249217D01*
X116138381Y-114179525D01*
X116180253Y-114123592D01*
X116245717Y-114099175D01*
X116273961Y-114100386D01*
X116524072Y-114140000D01*
X116775928Y-114140000D01*
X117024669Y-114100602D01*
X117264184Y-114022780D01*
X117488575Y-113908446D01*
X117488581Y-113908442D01*
X117590697Y-113834250D01*
X117590698Y-113834250D01*
X116974025Y-113217578D01*
X117005258Y-113204641D01*
X117128097Y-113122563D01*
X117232563Y-113018097D01*
X117314641Y-112895258D01*
X117327577Y-112864025D01*
X117944250Y-113480698D01*
X117944250Y-113480697D01*
X118018442Y-113378581D01*
X118018446Y-113378575D01*
X118132780Y-113154184D01*
X118210602Y-112914669D01*
X118250000Y-112665928D01*
X118250000Y-112414071D01*
X118210602Y-112165330D01*
X118132780Y-111925815D01*
X118018442Y-111701416D01*
X117944250Y-111599301D01*
X117944250Y-111599300D01*
X117327577Y-112215973D01*
X117314641Y-112184742D01*
X117232563Y-112061903D01*
X117128097Y-111957437D01*
X117005258Y-111875359D01*
X116974024Y-111862421D01*
X117590698Y-111245748D01*
X117488583Y-111171557D01*
X117264184Y-111057219D01*
X117024669Y-110979397D01*
X116775928Y-110940000D01*
X116524072Y-110940000D01*
X116275330Y-110979397D01*
X116035815Y-111057219D01*
X115811413Y-111171559D01*
X115709301Y-111245747D01*
X115709300Y-111245748D01*
X116325974Y-111862421D01*
X116294742Y-111875359D01*
X116171903Y-111957437D01*
X116067437Y-112061903D01*
X115985359Y-112184742D01*
X115972421Y-112215974D01*
X115355748Y-111599300D01*
X115355747Y-111599301D01*
X115281559Y-111701413D01*
X115167219Y-111925815D01*
X115089397Y-112165330D01*
X115050000Y-112414071D01*
X115050000Y-112665928D01*
X115089397Y-112914669D01*
X115167219Y-113154184D01*
X115281557Y-113378583D01*
X115355748Y-113480697D01*
X115355748Y-113480698D01*
X115972421Y-112864024D01*
X115985359Y-112895258D01*
X116067437Y-113018097D01*
X116171903Y-113122563D01*
X116294742Y-113204641D01*
X116325974Y-113217577D01*
X115709300Y-113834250D01*
X115711598Y-113863449D01*
X115697233Y-113931827D01*
X115648181Y-113981583D01*
X115580016Y-113996921D01*
X115568583Y-113995650D01*
X115466611Y-113979500D01*
X115293389Y-113979500D01*
X115253728Y-113985781D01*
X115122302Y-114006597D01*
X114957552Y-114060128D01*
X114803211Y-114138768D01*
X114747763Y-114179054D01*
X114663072Y-114240586D01*
X114663070Y-114240588D01*
X114663069Y-114240588D01*
X114540588Y-114363069D01*
X114540588Y-114363070D01*
X114540586Y-114363072D01*
X114496859Y-114423256D01*
X114438768Y-114503211D01*
X114360128Y-114657552D01*
X114306597Y-114822302D01*
X114279500Y-114993389D01*
X97642624Y-114993389D01*
X96536819Y-113887584D01*
X96503334Y-113826261D01*
X96500500Y-113799903D01*
X96500500Y-108562135D01*
X98214500Y-108562135D01*
X98214500Y-111057870D01*
X98214501Y-111057876D01*
X98220908Y-111117483D01*
X98271202Y-111252328D01*
X98271206Y-111252335D01*
X98357452Y-111367544D01*
X98357455Y-111367547D01*
X98472664Y-111453793D01*
X98472671Y-111453797D01*
X98607517Y-111504091D01*
X98607516Y-111504091D01*
X98614444Y-111504835D01*
X98667127Y-111510500D01*
X99962872Y-111510499D01*
X100022483Y-111504091D01*
X100157331Y-111453796D01*
X100272546Y-111367546D01*
X100358796Y-111252331D01*
X100409091Y-111117483D01*
X100415500Y-111057873D01*
X100415500Y-111057844D01*
X100755000Y-111057844D01*
X100761401Y-111117372D01*
X100761403Y-111117379D01*
X100811645Y-111252086D01*
X100811649Y-111252093D01*
X100897809Y-111367187D01*
X100897812Y-111367190D01*
X101012906Y-111453350D01*
X101012913Y-111453354D01*
X101147620Y-111503596D01*
X101147627Y-111503598D01*
X101207155Y-111509999D01*
X101207172Y-111510000D01*
X101605000Y-111510000D01*
X102105000Y-111510000D01*
X102502828Y-111510000D01*
X102502844Y-111509999D01*
X102562372Y-111503598D01*
X102562379Y-111503596D01*
X102697086Y-111453354D01*
X102697093Y-111453350D01*
X102812187Y-111367190D01*
X102812190Y-111367187D01*
X102898350Y-111252093D01*
X102898355Y-111252083D01*
X102899255Y-111249673D01*
X102948596Y-111117379D01*
X102948598Y-111117372D01*
X102954999Y-111057844D01*
X102955000Y-111057827D01*
X102955000Y-110060000D01*
X102105000Y-110060000D01*
X102105000Y-111510000D01*
X101605000Y-111510000D01*
X101605000Y-110060000D01*
X100755000Y-110060000D01*
X100755000Y-111057844D01*
X100415500Y-111057844D01*
X100415499Y-109874038D01*
X121399500Y-109874038D01*
X121399500Y-110125961D01*
X121438910Y-110374785D01*
X121516760Y-110614383D01*
X121631132Y-110838848D01*
X121779201Y-111042649D01*
X121779205Y-111042654D01*
X121957345Y-111220794D01*
X121957350Y-111220798D01*
X122135117Y-111349952D01*
X122161155Y-111368870D01*
X122304184Y-111441747D01*
X122385616Y-111483239D01*
X122385618Y-111483239D01*
X122385621Y-111483241D01*
X122625215Y-111561090D01*
X122874038Y-111600500D01*
X122874039Y-111600500D01*
X123125961Y-111600500D01*
X123125962Y-111600500D01*
X123374785Y-111561090D01*
X123614379Y-111483241D01*
X123838845Y-111368870D01*
X124042656Y-111220793D01*
X124220793Y-111042656D01*
X124368870Y-110838845D01*
X124483241Y-110614379D01*
X124561090Y-110374785D01*
X124600500Y-110125962D01*
X124600500Y-109874038D01*
X124561090Y-109625215D01*
X124483241Y-109385621D01*
X124483239Y-109385618D01*
X124483239Y-109385616D01*
X124399672Y-109221608D01*
X124368870Y-109161155D01*
X124349952Y-109135117D01*
X124220798Y-108957350D01*
X124220794Y-108957345D01*
X124042654Y-108779205D01*
X124042649Y-108779201D01*
X123838848Y-108631132D01*
X123838847Y-108631131D01*
X123838845Y-108631130D01*
X123768747Y-108595413D01*
X123614383Y-108516760D01*
X123374785Y-108438910D01*
X123366817Y-108437648D01*
X123125962Y-108399500D01*
X122874038Y-108399500D01*
X122749626Y-108419205D01*
X122625214Y-108438910D01*
X122385616Y-108516760D01*
X122161151Y-108631132D01*
X121957350Y-108779201D01*
X121957345Y-108779205D01*
X121779205Y-108957345D01*
X121779201Y-108957350D01*
X121631132Y-109161151D01*
X121516760Y-109385616D01*
X121438910Y-109625214D01*
X121399500Y-109874038D01*
X100415499Y-109874038D01*
X100415499Y-109783797D01*
X100415499Y-108562155D01*
X100755000Y-108562155D01*
X100755000Y-109560000D01*
X101605000Y-109560000D01*
X102105000Y-109560000D01*
X102955000Y-109560000D01*
X102955000Y-108562172D01*
X102954999Y-108562155D01*
X102948598Y-108502627D01*
X102948596Y-108502620D01*
X102898354Y-108367913D01*
X102898350Y-108367906D01*
X102812190Y-108252812D01*
X102812187Y-108252809D01*
X102697093Y-108166649D01*
X102697086Y-108166645D01*
X102562379Y-108116403D01*
X102562372Y-108116401D01*
X102502844Y-108110000D01*
X102105000Y-108110000D01*
X102105000Y-109560000D01*
X101605000Y-109560000D01*
X101605000Y-108110000D01*
X101207155Y-108110000D01*
X101147627Y-108116401D01*
X101147620Y-108116403D01*
X101012913Y-108166645D01*
X101012906Y-108166649D01*
X100897812Y-108252809D01*
X100897809Y-108252812D01*
X100811649Y-108367906D01*
X100811645Y-108367913D01*
X100761403Y-108502620D01*
X100761401Y-108502627D01*
X100755000Y-108562155D01*
X100415499Y-108562155D01*
X100415499Y-108562129D01*
X100415498Y-108562123D01*
X100415497Y-108562116D01*
X100409091Y-108502517D01*
X100384896Y-108437648D01*
X100358797Y-108367671D01*
X100358793Y-108367664D01*
X100272547Y-108252455D01*
X100272544Y-108252452D01*
X100157335Y-108166206D01*
X100157328Y-108166202D01*
X100022482Y-108115908D01*
X100022483Y-108115908D01*
X99962883Y-108109501D01*
X99962881Y-108109500D01*
X99962873Y-108109500D01*
X99962864Y-108109500D01*
X98667129Y-108109500D01*
X98667123Y-108109501D01*
X98607516Y-108115908D01*
X98472671Y-108166202D01*
X98472664Y-108166206D01*
X98357455Y-108252452D01*
X98357452Y-108252455D01*
X98271206Y-108367664D01*
X98271202Y-108367671D01*
X98220908Y-108502517D01*
X98214501Y-108562116D01*
X98214501Y-108562123D01*
X98214500Y-108562135D01*
X96500500Y-108562135D01*
X96500500Y-100520945D01*
X96500500Y-100520943D01*
X96459577Y-100368216D01*
X96459573Y-100368209D01*
X96380524Y-100231290D01*
X96380518Y-100231282D01*
X96268717Y-100119481D01*
X96268709Y-100119475D01*
X96131790Y-100040426D01*
X96131786Y-100040424D01*
X96131784Y-100040423D01*
X95979057Y-99999500D01*
X95979056Y-99999500D01*
X95485097Y-99999500D01*
X95418058Y-99979815D01*
X95397416Y-99963181D01*
X94371224Y-98936989D01*
X94337739Y-98875666D01*
X94334912Y-98848064D01*
X94357472Y-96620000D01*
X95380000Y-96620000D01*
X96780000Y-96620000D01*
X96780000Y-94420000D01*
X95380000Y-94420000D01*
X95380000Y-96620000D01*
X94357472Y-96620000D01*
X94398630Y-92555236D01*
X94418993Y-92488403D01*
X94472257Y-92443185D01*
X94534610Y-92433076D01*
X98198606Y-92789007D01*
G37*
%TD.AperFunction*%
%TA.AperFunction,Conductor*%
G36*
X104323039Y-94540185D02*
G01*
X104368794Y-94592989D01*
X104380000Y-94644500D01*
X104380000Y-96620000D01*
X105780000Y-96620000D01*
X105780000Y-94644500D01*
X105799685Y-94577461D01*
X105852489Y-94531706D01*
X105904000Y-94520500D01*
X106545589Y-94520500D01*
X106612628Y-94540185D01*
X106633270Y-94556819D01*
X107075096Y-94998645D01*
X107108581Y-95059968D01*
X107103597Y-95129660D01*
X107090368Y-95154301D01*
X107090686Y-95154496D01*
X107088144Y-95158643D01*
X106995244Y-95340968D01*
X106932009Y-95535582D01*
X106900000Y-95737682D01*
X106900000Y-95942317D01*
X106932009Y-96144417D01*
X106995244Y-96339031D01*
X107088141Y-96521350D01*
X107088147Y-96521359D01*
X107120523Y-96565921D01*
X107120524Y-96565922D01*
X107800000Y-95886446D01*
X107800000Y-95892661D01*
X107827259Y-95994394D01*
X107879920Y-96085606D01*
X107954394Y-96160080D01*
X108045606Y-96212741D01*
X108147339Y-96240000D01*
X108153552Y-96240000D01*
X107373436Y-97020114D01*
X107374037Y-97028522D01*
X107402357Y-97066353D01*
X107407342Y-97136044D01*
X107373858Y-97197368D01*
X107360490Y-97208951D01*
X107342455Y-97222452D01*
X107342452Y-97222455D01*
X107256206Y-97337664D01*
X107256202Y-97337671D01*
X107205908Y-97472517D01*
X107201470Y-97513802D01*
X107178499Y-97573432D01*
X107087715Y-97698386D01*
X106994781Y-97880776D01*
X106931522Y-98075465D01*
X106899500Y-98277648D01*
X106899500Y-98482351D01*
X106931522Y-98684534D01*
X106994781Y-98879223D01*
X107087712Y-99061608D01*
X107087713Y-99061610D01*
X107178500Y-99186571D01*
X107201471Y-99246201D01*
X107205909Y-99287483D01*
X107256202Y-99422328D01*
X107256206Y-99422335D01*
X107342452Y-99537544D01*
X107342453Y-99537544D01*
X107342454Y-99537546D01*
X107360070Y-99550733D01*
X107360071Y-99550734D01*
X107401941Y-99606668D01*
X107406925Y-99676360D01*
X107373439Y-99737683D01*
X107360071Y-99749266D01*
X107342452Y-99762455D01*
X107256206Y-99877664D01*
X107256202Y-99877671D01*
X107205908Y-100012517D01*
X107201470Y-100053802D01*
X107178499Y-100113432D01*
X107087715Y-100238386D01*
X106994781Y-100420776D01*
X106931522Y-100615465D01*
X106899500Y-100817648D01*
X106899500Y-101022351D01*
X106931522Y-101224534D01*
X106994781Y-101419223D01*
X107087712Y-101601608D01*
X107087713Y-101601610D01*
X107178500Y-101726571D01*
X107201471Y-101786201D01*
X107205909Y-101827483D01*
X107256202Y-101962328D01*
X107256206Y-101962335D01*
X107342452Y-102077544D01*
X107342453Y-102077544D01*
X107342454Y-102077546D01*
X107360070Y-102090733D01*
X107360071Y-102090734D01*
X107401941Y-102146668D01*
X107406925Y-102216360D01*
X107373439Y-102277683D01*
X107360071Y-102289266D01*
X107342452Y-102302455D01*
X107256206Y-102417664D01*
X107256202Y-102417671D01*
X107205908Y-102552517D01*
X107201470Y-102593802D01*
X107178499Y-102653432D01*
X107087715Y-102778386D01*
X106994781Y-102960776D01*
X106931522Y-103155465D01*
X106899500Y-103357648D01*
X106899500Y-103562351D01*
X106931522Y-103764534D01*
X106994781Y-103959223D01*
X107087712Y-104141608D01*
X107087713Y-104141610D01*
X107178500Y-104266571D01*
X107201471Y-104326201D01*
X107205909Y-104367483D01*
X107256202Y-104502328D01*
X107256206Y-104502335D01*
X107342452Y-104617544D01*
X107342453Y-104617544D01*
X107342454Y-104617546D01*
X107360070Y-104630733D01*
X107360071Y-104630734D01*
X107401941Y-104686668D01*
X107406925Y-104756360D01*
X107373439Y-104817683D01*
X107360071Y-104829266D01*
X107342452Y-104842455D01*
X107256206Y-104957664D01*
X107256202Y-104957671D01*
X107205908Y-105092517D01*
X107201470Y-105133802D01*
X107178499Y-105193432D01*
X107087715Y-105318386D01*
X106994781Y-105500776D01*
X106931522Y-105695465D01*
X106899500Y-105897648D01*
X106899500Y-106090903D01*
X106879815Y-106157942D01*
X106827011Y-106203697D01*
X106757853Y-106213641D01*
X106694297Y-106184616D01*
X106687819Y-106178584D01*
X101586819Y-101077584D01*
X101553334Y-101016261D01*
X101550500Y-100989903D01*
X101550500Y-96171460D01*
X101570185Y-96104421D01*
X101622989Y-96058666D01*
X101692147Y-96048722D01*
X101693898Y-96048987D01*
X101763429Y-96060000D01*
X101936571Y-96060000D01*
X102107584Y-96032914D01*
X102272257Y-95979408D01*
X102426525Y-95900803D01*
X102432736Y-95896289D01*
X101760904Y-95224457D01*
X101727419Y-95163134D01*
X101732403Y-95093443D01*
X101760904Y-95049095D01*
X101939095Y-94870904D01*
X102000418Y-94837419D01*
X102070110Y-94842403D01*
X102114457Y-94870904D01*
X102786289Y-95542736D01*
X102790803Y-95536525D01*
X102869408Y-95382257D01*
X102922914Y-95217584D01*
X102950000Y-95046571D01*
X102950000Y-94873428D01*
X102922913Y-94702414D01*
X102922913Y-94702411D01*
X102916547Y-94682818D01*
X102914552Y-94612976D01*
X102950633Y-94553144D01*
X103013334Y-94522316D01*
X103034478Y-94520500D01*
X104256000Y-94520500D01*
X104323039Y-94540185D01*
G37*
%TD.AperFunction*%
%TA.AperFunction,Conductor*%
G36*
X111842540Y-95360185D02*
G01*
X111888295Y-95412989D01*
X111899501Y-95464500D01*
X111899501Y-96147876D01*
X111905908Y-96207483D01*
X111956202Y-96342328D01*
X111956206Y-96342335D01*
X112042452Y-96457544D01*
X112042453Y-96457544D01*
X112042454Y-96457546D01*
X112085329Y-96489642D01*
X112160599Y-96545990D01*
X112202469Y-96601924D01*
X112207453Y-96671615D01*
X112186605Y-96718141D01*
X112117087Y-96813824D01*
X112009897Y-97024197D01*
X111936934Y-97248752D01*
X111900000Y-97481947D01*
X111900000Y-97718052D01*
X111936934Y-97951247D01*
X112009897Y-98175802D01*
X112117087Y-98386174D01*
X112177338Y-98469104D01*
X112177340Y-98469105D01*
X112917037Y-97729408D01*
X112934075Y-97792993D01*
X112999901Y-97907007D01*
X113092993Y-98000099D01*
X113207007Y-98065925D01*
X113270590Y-98082962D01*
X112524280Y-98829271D01*
X112515105Y-98872947D01*
X112478739Y-98914615D01*
X112422490Y-98955482D01*
X112255485Y-99122487D01*
X112255485Y-99122488D01*
X112255483Y-99122490D01*
X112208925Y-99186571D01*
X112116657Y-99313566D01*
X112009433Y-99524003D01*
X111936446Y-99748631D01*
X111899500Y-99981902D01*
X111899500Y-100218097D01*
X111936446Y-100451368D01*
X112009433Y-100675996D01*
X112111699Y-100876702D01*
X112116657Y-100886433D01*
X112255483Y-101077510D01*
X112422490Y-101244517D01*
X112530042Y-101322658D01*
X112613568Y-101383344D01*
X112683978Y-101419219D01*
X112731794Y-101443582D01*
X112782590Y-101491556D01*
X112799500Y-101554067D01*
X112799500Y-103299902D01*
X112779815Y-103366941D01*
X112763181Y-103387583D01*
X111266090Y-104884673D01*
X111256970Y-104889652D01*
X111250566Y-104897835D01*
X111226828Y-104906111D01*
X111204767Y-104918158D01*
X111194403Y-104917416D01*
X111184592Y-104920838D01*
X111160149Y-104914967D01*
X111135075Y-104913174D01*
X111124951Y-104906513D01*
X111116654Y-104904520D01*
X111101416Y-104891027D01*
X111088861Y-104882766D01*
X111083654Y-104877330D01*
X111057546Y-104842454D01*
X111031752Y-104823144D01*
X111024692Y-104815774D01*
X111013122Y-104793457D01*
X110998058Y-104773334D01*
X110997316Y-104762968D01*
X110992535Y-104753745D01*
X110994867Y-104728717D01*
X110993074Y-104703642D01*
X110998053Y-104694521D01*
X110999018Y-104684176D01*
X111014510Y-104664383D01*
X111026558Y-104642319D01*
X111039930Y-104630733D01*
X111057546Y-104617546D01*
X111143796Y-104502331D01*
X111194091Y-104367483D01*
X111200500Y-104307873D01*
X111200499Y-102612128D01*
X111194091Y-102552517D01*
X111143796Y-102417669D01*
X111143795Y-102417668D01*
X111143793Y-102417664D01*
X111057547Y-102302455D01*
X111057546Y-102302454D01*
X111039930Y-102289267D01*
X110998058Y-102233334D01*
X110993074Y-102163642D01*
X111026558Y-102102319D01*
X111039930Y-102090733D01*
X111057546Y-102077546D01*
X111143796Y-101962331D01*
X111194091Y-101827483D01*
X111200500Y-101767873D01*
X111200499Y-100072128D01*
X111194091Y-100012517D01*
X111182672Y-99981902D01*
X111143797Y-99877671D01*
X111143793Y-99877664D01*
X111057547Y-99762455D01*
X111057546Y-99762454D01*
X111039930Y-99749267D01*
X110998058Y-99693334D01*
X110993074Y-99623642D01*
X111026558Y-99562319D01*
X111039930Y-99550733D01*
X111057546Y-99537546D01*
X111143796Y-99422331D01*
X111194091Y-99287483D01*
X111200500Y-99227873D01*
X111200499Y-97532128D01*
X111194091Y-97472517D01*
X111169657Y-97407007D01*
X111143797Y-97337671D01*
X111143793Y-97337664D01*
X111057547Y-97222455D01*
X111039511Y-97208953D01*
X110997640Y-97153019D01*
X110992657Y-97083327D01*
X111026143Y-97022004D01*
X111039515Y-97010418D01*
X111057191Y-96997186D01*
X111143350Y-96882093D01*
X111143354Y-96882086D01*
X111193596Y-96747379D01*
X111193598Y-96747372D01*
X111199999Y-96687844D01*
X111200000Y-96687827D01*
X111200000Y-96090000D01*
X109324000Y-96090000D01*
X109256961Y-96070315D01*
X109211206Y-96017511D01*
X109200000Y-95966000D01*
X109200000Y-95714000D01*
X109219685Y-95646961D01*
X109272489Y-95601206D01*
X109324000Y-95590000D01*
X111200000Y-95590000D01*
X111200000Y-95464500D01*
X111219685Y-95397461D01*
X111272489Y-95351706D01*
X111324000Y-95340500D01*
X111775501Y-95340500D01*
X111842540Y-95360185D01*
G37*
%TD.AperFunction*%
%TD*%
M02*
