%TF.GenerationSoftware,KiCad,Pcbnew,10.0.1*%
%TF.CreationDate,2026-06-11T21:31:32+08:00*%
%TF.ProjectId,hackpad,6861636b-7061-4642-9e6b-696361645f70,rev?*%
%TF.SameCoordinates,Original*%
%TF.FileFunction,Soldermask,Top*%
%TF.FilePolarity,Negative*%
%FSLAX46Y46*%
G04 Gerber Fmt 4.6, Leading zero omitted, Abs format (unit mm)*
G04 Created by KiCad (PCBNEW 10.0.1) date 2026-06-11 21:31:32*
%MOMM*%
%LPD*%
G01*
G04 APERTURE LIST*
%ADD10C,1.700000*%
%ADD11C,4.000000*%
%ADD12C,2.200000*%
%ADD13R,2.000000X2.000000*%
%ADD14C,2.000000*%
%ADD15R,3.000000X2.500000*%
%ADD16C,1.600000*%
%ADD17R,3.000000X1.600000*%
%ADD18R,1.200000X2.400000*%
%ADD19C,1.200000*%
G04 APERTURE END LIST*
D10*
%TO.C,SW1*%
X115380000Y-115080000D03*
D11*
X120460000Y-115080000D03*
D10*
X125540000Y-115080000D03*
D12*
X123000000Y-110000000D03*
X116650000Y-112540000D03*
%TD*%
D13*
%TO.C,SW4*%
X113400000Y-95100000D03*
D14*
X113400000Y-100100000D03*
X113400000Y-97600000D03*
D15*
X120900000Y-92000000D03*
X120900000Y-103200000D03*
D14*
X127900000Y-95100000D03*
X127900000Y-100100000D03*
%TD*%
D16*
%TO.C,M1*%
X92965000Y-93300000D03*
D17*
X91965000Y-93300000D03*
D16*
X92965000Y-95840000D03*
D17*
X91965000Y-95840000D03*
D16*
X92965000Y-98380000D03*
D17*
X91965000Y-98380000D03*
D16*
X92965000Y-100920000D03*
D17*
X91965000Y-100920000D03*
D16*
X92965000Y-103460000D03*
D17*
X91965000Y-103460000D03*
D16*
X92965000Y-106000000D03*
D17*
X91965000Y-106000000D03*
D16*
X92965000Y-108540000D03*
D17*
X91965000Y-108540000D03*
D16*
X108200000Y-108540000D03*
D17*
X109200000Y-108540000D03*
D16*
X108200000Y-106000000D03*
D17*
X109200000Y-106000000D03*
D16*
X108200000Y-103460000D03*
D17*
X109200000Y-103460000D03*
D16*
X108200000Y-100920000D03*
D17*
X109200000Y-100920000D03*
D16*
X108200000Y-98380000D03*
D17*
X109200000Y-98380000D03*
D16*
X108200000Y-95840000D03*
D17*
X109200000Y-95840000D03*
D16*
X108200000Y-93300000D03*
D17*
X109200000Y-93300000D03*
D18*
X101855000Y-109810000D03*
X99315000Y-109810000D03*
D19*
X99310000Y-92420000D03*
X99310000Y-94960000D03*
X101850000Y-94960000D03*
X101850000Y-92420000D03*
%TD*%
D13*
%TO.C,SW5*%
X132500000Y-95100000D03*
D14*
X132500000Y-100100000D03*
X132500000Y-97600000D03*
D15*
X140000000Y-92000000D03*
X140000000Y-103200000D03*
D14*
X147000000Y-95100000D03*
X147000000Y-100100000D03*
%TD*%
D10*
%TO.C,SW2*%
X134430000Y-115080000D03*
D11*
X139510000Y-115080000D03*
D10*
X144590000Y-115080000D03*
D12*
X142050000Y-110000000D03*
X135700000Y-112540000D03*
%TD*%
D10*
%TO.C,SW3*%
X96330000Y-134130000D03*
D11*
X101410000Y-134130000D03*
D10*
X106490000Y-134130000D03*
D12*
X103950000Y-129050000D03*
X97600000Y-131590000D03*
%TD*%
D10*
%TO.C,SW6*%
X115380000Y-134130000D03*
D11*
X120460000Y-134130000D03*
D10*
X125540000Y-134130000D03*
D12*
X123000000Y-129050000D03*
X116650000Y-131590000D03*
%TD*%
D10*
%TO.C,SW7*%
X134430000Y-134130000D03*
D11*
X139510000Y-134130000D03*
D10*
X144590000Y-134130000D03*
D12*
X142050000Y-129050000D03*
X135700000Y-131590000D03*
%TD*%
M02*
