%TF.GenerationSoftware,KiCad,Pcbnew,10.0.1*%
%TF.CreationDate,2026-06-12T02:12:07+08:00*%
%TF.ProjectId,hackpad,6861636b-7061-4642-9e6b-696361645f70,rev?*%
%TF.SameCoordinates,Original*%
%TF.FileFunction,Copper,L2,Bot*%
%TF.FilePolarity,Positive*%
%FSLAX46Y46*%
G04 Gerber Fmt 4.6, Leading zero omitted, Abs format (unit mm)*
G04 Created by KiCad (PCBNEW 10.0.1) date 2026-06-12 02:12:07*
%MOMM*%
%LPD*%
G01*
G04 APERTURE LIST*
%TA.AperFunction,ComponentPad*%
%ADD10C,2.200000*%
%TD*%
%TA.AperFunction,ComponentPad*%
%ADD11R,2.000000X2.000000*%
%TD*%
%TA.AperFunction,ComponentPad*%
%ADD12C,2.000000*%
%TD*%
%TA.AperFunction,ComponentPad*%
%ADD13R,3.000000X2.500000*%
%TD*%
%TA.AperFunction,ComponentPad*%
%ADD14C,1.600000*%
%TD*%
%TA.AperFunction,Conductor*%
%ADD15C,0.200000*%
%TD*%
G04 APERTURE END LIST*
D10*
%TO.P,SW1,2,2_2*%
%TO.N,GND*%
X116650000Y-112540000D03*
%TO.P,SW1,1,1_1*%
%TO.N,/SW1*%
X123000000Y-110000000D03*
%TD*%
%TO.P,SW7,1,1_1*%
%TO.N,/SW7*%
X142050000Y-129050000D03*
%TO.P,SW7,2,2_2*%
%TO.N,GND*%
X135700000Y-131590000D03*
%TD*%
D11*
%TO.P,SW5,A,A_A*%
%TO.N,/A5*%
X132500000Y-95100000D03*
D12*
%TO.P,SW5,B,B_B*%
%TO.N,/B5*%
X132500000Y-100100000D03*
%TO.P,SW5,C,C_C*%
%TO.N,GND*%
X132500000Y-97600000D03*
D13*
%TO.P,SW5,MP*%
%TO.N,N/C*%
X140000000Y-92000000D03*
X140000000Y-103200000D03*
D12*
%TO.P,SW5,S1,S1_S1*%
%TO.N,/SW5*%
X147000000Y-95100000D03*
%TO.P,SW5,S2,S2_S2*%
%TO.N,GND*%
X147000000Y-100100000D03*
%TD*%
D10*
%TO.P,SW6,1,1_1*%
%TO.N,/SW6*%
X123000000Y-129050000D03*
%TO.P,SW6,2,2_2*%
%TO.N,GND*%
X116650000Y-131590000D03*
%TD*%
D14*
%TO.P,M1,1,D0_1*%
%TO.N,/SW1*%
X92965000Y-93300000D03*
%TO.P,M1,2,D1_2*%
%TO.N,/SW2*%
X92965000Y-95840000D03*
%TO.P,M1,3,D2_3*%
%TO.N,/SW3*%
X92965000Y-98380000D03*
%TO.P,M1,4,D3_4*%
%TO.N,/SW4*%
X92965000Y-100920000D03*
%TO.P,M1,5,D4_5*%
%TO.N,/SW5*%
X92965000Y-103460000D03*
%TO.P,M1,6,D5_6*%
%TO.N,/SW6*%
X92965000Y-106000000D03*
%TO.P,M1,7,D6_7*%
%TO.N,/SW7*%
X92965000Y-108540000D03*
%TO.P,M1,8,D7_8*%
%TO.N,/A4*%
X108200000Y-108540000D03*
%TO.P,M1,9,D8_9*%
%TO.N,/B4*%
X108200000Y-106000000D03*
%TO.P,M1,10,D9_10*%
%TO.N,/A5*%
X108200000Y-103460000D03*
%TO.P,M1,11,D10_11*%
%TO.N,/B5*%
X108200000Y-100920000D03*
%TO.P,M1,12,3V3_12*%
%TO.N,unconnected-(M1-3V3-Pad12)*%
X108200000Y-98380000D03*
%TO.P,M1,13,GND_13*%
%TO.N,GND*%
X108200000Y-95840000D03*
%TO.P,M1,14,5V_14*%
%TO.N,unconnected-(M1-5V-Pad14)_1*%
X108200000Y-93300000D03*
%TD*%
D10*
%TO.P,SW2,1,1_1*%
%TO.N,/SW2*%
X142050000Y-110000000D03*
%TO.P,SW2,2,2_2*%
%TO.N,GND*%
X135700000Y-112540000D03*
%TD*%
%TO.P,SW3,1,1_1*%
%TO.N,/SW3*%
X103950000Y-129050000D03*
%TO.P,SW3,2,2_2*%
%TO.N,GND*%
X97600000Y-131590000D03*
%TD*%
D11*
%TO.P,SW4,A,A_A*%
%TO.N,/A4*%
X113400000Y-95100000D03*
D12*
%TO.P,SW4,B,B_B*%
%TO.N,/B4*%
X113400000Y-100100000D03*
%TO.P,SW4,C,C_C*%
%TO.N,GND*%
X113400000Y-97600000D03*
D13*
%TO.P,SW4,MP*%
%TO.N,N/C*%
X120900000Y-92000000D03*
X120900000Y-103200000D03*
D12*
%TO.P,SW4,S1,S1_S1*%
%TO.N,/SW4*%
X127900000Y-95100000D03*
%TO.P,SW4,S2,S2_S2*%
%TO.N,GND*%
X127900000Y-100100000D03*
%TD*%
%TO.N,/A5*%
D15*
X130900000Y-95100000D02*
X132500000Y-95100000D01*
X120300000Y-97600000D02*
X128400000Y-97600000D01*
X128400000Y-97600000D02*
X130900000Y-95100000D01*
X114440000Y-103460000D02*
X120300000Y-97600000D01*
X108200000Y-103460000D02*
X114440000Y-103460000D01*
%TO.N,/B5*%
X126600000Y-106000000D02*
X112200000Y-106000000D01*
X106780000Y-100920000D02*
X108200000Y-100920000D01*
X112200000Y-106000000D02*
X110900000Y-104700000D01*
X106400000Y-104100000D02*
X106400000Y-101300000D01*
X132500000Y-100100000D02*
X126600000Y-106000000D01*
X106400000Y-101300000D02*
X106780000Y-100920000D01*
X107000000Y-104700000D02*
X106400000Y-104100000D01*
X110900000Y-104700000D02*
X107000000Y-104700000D01*
%TO.N,/SW5*%
X95500000Y-104700000D02*
X94260000Y-103460000D01*
X143200000Y-107400000D02*
X114300000Y-107400000D01*
X143700000Y-98400000D02*
X143700000Y-106900000D01*
X143700000Y-106900000D02*
X143200000Y-107400000D01*
X94260000Y-103460000D02*
X92965000Y-103460000D01*
X95900000Y-113700000D02*
X95500000Y-113300000D01*
X108000000Y-113700000D02*
X95900000Y-113700000D01*
X147000000Y-95100000D02*
X143700000Y-98400000D01*
X114300000Y-107400000D02*
X108000000Y-113700000D01*
X95500000Y-113300000D02*
X95500000Y-104700000D01*
%TO.N,/SW1*%
X92400000Y-118500000D02*
X123000000Y-118500000D01*
X92965000Y-93300000D02*
X90900000Y-95365000D01*
X123000000Y-118500000D02*
X123000000Y-110000000D01*
X90900000Y-95365000D02*
X90900000Y-117000000D01*
X90900000Y-117000000D02*
X92400000Y-118500000D01*
%TO.N,/SW2*%
X91600000Y-97205000D02*
X92965000Y-95840000D01*
X110300000Y-116400000D02*
X91600000Y-116400000D01*
X118500000Y-108200000D02*
X110300000Y-116400000D01*
X124100000Y-108200000D02*
X118500000Y-108200000D01*
X125900000Y-110000000D02*
X124100000Y-108200000D01*
X142050000Y-110000000D02*
X125900000Y-110000000D01*
X91600000Y-116400000D02*
X91600000Y-97205000D01*
%TO.N,/SW4*%
X114100000Y-91500000D02*
X117800000Y-95200000D01*
X102385000Y-91500000D02*
X114100000Y-91500000D01*
X92965000Y-100920000D02*
X102385000Y-91500000D01*
X117800000Y-95200000D02*
X117900000Y-95100000D01*
X117900000Y-95100000D02*
X127900000Y-95100000D01*
%TD*%
M02*
