M48
; DRILL file KiCad 10.0.1 date 2026-06-12T02:13:13
; FORMAT={-:-/ absolute / metric / decimal}
; #@! TF.CreationDate,2026-06-12T02:13:13+08:00
; #@! TF.GenerationSoftware,Kicad,Pcbnew,10.0.1
; #@! TF.FileFunction,Plated,1,2,PTH
FMAT,2
METRIC
; #@! TA.AperFunction,Plated,PTH,ComponentDrill
T1C0.800
; #@! TA.AperFunction,Plated,PTH,ComponentDrill
T2C1.000
; #@! TA.AperFunction,Plated,PTH,ComponentDrill
T3C1.500
; #@! TA.AperFunction,Plated,PTH,ComponentDrill
T4C2.000
%
G90
G05
T1
X92.965Y-93.3
X92.965Y-95.84
X92.965Y-98.38
X92.965Y-100.92
X92.965Y-103.46
X92.965Y-106.0
X92.965Y-108.54
X108.2Y-93.3
X108.2Y-95.84
X108.2Y-98.38
X108.2Y-100.92
X108.2Y-103.46
X108.2Y-106.0
X108.2Y-108.54
T2
X113.4Y-95.1
X113.4Y-97.6
X113.4Y-100.1
X127.9Y-95.1
X127.9Y-100.1
X132.5Y-95.1
X132.5Y-97.6
X132.5Y-100.1
X147.0Y-95.1
X147.0Y-100.1
T3
X97.6Y-131.59
X103.95Y-129.05
X116.65Y-112.54
X116.65Y-131.59
X123.0Y-110.0
X123.0Y-129.05
X135.7Y-112.54
X135.7Y-131.59
X142.05Y-110.0
X142.05Y-129.05
T4
G00X120.65Y-92.0
M15
G01X121.15Y-92.0
M16
G05
G00X120.65Y-103.2
M15
G01X121.15Y-103.2
M16
G05
G00X139.75Y-92.0
M15
G01X140.25Y-92.0
M16
G05
G00X139.75Y-103.2
M15
G01X140.25Y-103.2
M16
G05
M30
